<mxfile host="app.diagrams.net" modified="2024-04-01T10:20:38.001Z" agent="Mozilla/5.0 (Windows NT 10.0; Win64; x64) AppleWebKit/537.36 (KHTML, like Gecko) Chrome/120.0.0.0 YaBrowser/24.1.0.0 Safari/537.36" etag="EuQoYq2OJB1a5uqECnN9" version="24.2.1" type="device">
  <diagram name="Страница — 1" id="F0ao5wkLiuu5aMfqrPwc">
    <mxGraphModel dx="2562" dy="1362" grid="1" gridSize="10" guides="1" tooltips="1" connect="1" arrows="1" fold="1" page="1" pageScale="1" pageWidth="827" pageHeight="1169" math="0" shadow="0">
      <root>
        <mxCell id="0" />
        <mxCell id="1" parent="0" />
        <mxCell id="Tlv0mU6QZfII-HZCm7lc-372" value="" style="rounded=0;whiteSpace=wrap;html=1;" vertex="1" parent="1">
          <mxGeometry x="15" y="20" width="1185" height="11140" as="geometry" />
        </mxCell>
        <mxCell id="Tlv0mU6QZfII-HZCm7lc-2" value="Мониторинг выполнения проекта" style="text;html=1;align=center;verticalAlign=middle;whiteSpace=wrap;rounded=0;" vertex="1" parent="1">
          <mxGeometry x="21.5" y="50" width="201" height="30" as="geometry" />
        </mxCell>
        <mxCell id="Tlv0mU6QZfII-HZCm7lc-3" value="Система" style="text;html=1;align=center;verticalAlign=middle;whiteSpace=wrap;rounded=0;" vertex="1" parent="1">
          <mxGeometry x="180" y="70" width="120" height="30" as="geometry" />
        </mxCell>
        <mxCell id="Tlv0mU6QZfII-HZCm7lc-4" value="Менеджер" style="text;html=1;align=center;verticalAlign=middle;whiteSpace=wrap;rounded=0;" vertex="1" parent="1">
          <mxGeometry x="520" y="70" width="90" height="30" as="geometry" />
        </mxCell>
        <mxCell id="Tlv0mU6QZfII-HZCm7lc-14" style="edgeStyle=orthogonalEdgeStyle;rounded=0;orthogonalLoop=1;jettySize=auto;html=1;exitX=0.5;exitY=1;exitDx=0;exitDy=0;entryX=0.5;entryY=0;entryDx=0;entryDy=0;" edge="1" parent="1" source="Tlv0mU6QZfII-HZCm7lc-12" target="Tlv0mU6QZfII-HZCm7lc-13">
          <mxGeometry relative="1" as="geometry">
            <Array as="points">
              <mxPoint x="565" y="150" />
            </Array>
          </mxGeometry>
        </mxCell>
        <mxCell id="Tlv0mU6QZfII-HZCm7lc-12" value="" style="ellipse;whiteSpace=wrap;html=1;aspect=fixed;" vertex="1" parent="1">
          <mxGeometry x="545" y="110" width="40" height="40" as="geometry" />
        </mxCell>
        <mxCell id="Tlv0mU6QZfII-HZCm7lc-18" style="edgeStyle=orthogonalEdgeStyle;rounded=0;orthogonalLoop=1;jettySize=auto;html=1;exitX=0;exitY=0.5;exitDx=0;exitDy=0;entryX=0.5;entryY=0;entryDx=0;entryDy=0;" edge="1" parent="1" source="Tlv0mU6QZfII-HZCm7lc-13" target="Tlv0mU6QZfII-HZCm7lc-17">
          <mxGeometry relative="1" as="geometry">
            <Array as="points">
              <mxPoint x="510" y="180" />
              <mxPoint x="230" y="180" />
            </Array>
          </mxGeometry>
        </mxCell>
        <mxCell id="Tlv0mU6QZfII-HZCm7lc-13" value="Входит в систему" style="rounded=0;whiteSpace=wrap;html=1;" vertex="1" parent="1">
          <mxGeometry x="510" y="170" width="110" height="40" as="geometry" />
        </mxCell>
        <mxCell id="Tlv0mU6QZfII-HZCm7lc-21" style="edgeStyle=orthogonalEdgeStyle;rounded=0;orthogonalLoop=1;jettySize=auto;html=1;exitX=0.5;exitY=1;exitDx=0;exitDy=0;entryX=0.5;entryY=0;entryDx=0;entryDy=0;" edge="1" parent="1" source="Tlv0mU6QZfII-HZCm7lc-15" target="Tlv0mU6QZfII-HZCm7lc-20">
          <mxGeometry relative="1" as="geometry" />
        </mxCell>
        <mxCell id="Tlv0mU6QZfII-HZCm7lc-15" value="выбирает проект" style="rounded=0;whiteSpace=wrap;html=1;" vertex="1" parent="1">
          <mxGeometry x="505" y="280" width="120" height="40" as="geometry" />
        </mxCell>
        <mxCell id="Tlv0mU6QZfII-HZCm7lc-19" style="edgeStyle=orthogonalEdgeStyle;rounded=0;orthogonalLoop=1;jettySize=auto;html=1;exitX=0.5;exitY=1;exitDx=0;exitDy=0;entryX=0;entryY=0.5;entryDx=0;entryDy=0;" edge="1" parent="1" source="Tlv0mU6QZfII-HZCm7lc-17" target="Tlv0mU6QZfII-HZCm7lc-15">
          <mxGeometry relative="1" as="geometry" />
        </mxCell>
        <mxCell id="Tlv0mU6QZfII-HZCm7lc-17" value="Отображает начальный экран менеджера" style="rounded=0;whiteSpace=wrap;html=1;" vertex="1" parent="1">
          <mxGeometry x="170" y="200" width="120" height="60" as="geometry" />
        </mxCell>
        <mxCell id="Tlv0mU6QZfII-HZCm7lc-23" style="edgeStyle=orthogonalEdgeStyle;rounded=0;orthogonalLoop=1;jettySize=auto;html=1;exitX=0;exitY=0.5;exitDx=0;exitDy=0;entryX=0.5;entryY=0;entryDx=0;entryDy=0;" edge="1" parent="1" source="Tlv0mU6QZfII-HZCm7lc-20" target="Tlv0mU6QZfII-HZCm7lc-22">
          <mxGeometry relative="1" as="geometry" />
        </mxCell>
        <mxCell id="Tlv0mU6QZfII-HZCm7lc-20" value="нажимает проверить статус задачи" style="rounded=0;whiteSpace=wrap;html=1;" vertex="1" parent="1">
          <mxGeometry x="505" y="350" width="120" height="40" as="geometry" />
        </mxCell>
        <mxCell id="Tlv0mU6QZfII-HZCm7lc-25" style="edgeStyle=orthogonalEdgeStyle;rounded=0;orthogonalLoop=1;jettySize=auto;html=1;exitX=0.5;exitY=1;exitDx=0;exitDy=0;entryX=0;entryY=0.5;entryDx=0;entryDy=0;" edge="1" parent="1" source="Tlv0mU6QZfII-HZCm7lc-22" target="Tlv0mU6QZfII-HZCm7lc-24">
          <mxGeometry relative="1" as="geometry" />
        </mxCell>
        <mxCell id="Tlv0mU6QZfII-HZCm7lc-22" value="программа отображает текущие задачи, выполненные и нет" style="rounded=0;whiteSpace=wrap;html=1;" vertex="1" parent="1">
          <mxGeometry x="180" y="370" width="120" height="60" as="geometry" />
        </mxCell>
        <mxCell id="Tlv0mU6QZfII-HZCm7lc-28" style="edgeStyle=orthogonalEdgeStyle;rounded=0;orthogonalLoop=1;jettySize=auto;html=1;exitX=0.5;exitY=1;exitDx=0;exitDy=0;entryX=0.5;entryY=0;entryDx=0;entryDy=0;" edge="1" parent="1" source="Tlv0mU6QZfII-HZCm7lc-24" target="Tlv0mU6QZfII-HZCm7lc-26">
          <mxGeometry relative="1" as="geometry" />
        </mxCell>
        <mxCell id="Tlv0mU6QZfII-HZCm7lc-24" value="Менеджер делает выводы" style="rounded=0;whiteSpace=wrap;html=1;" vertex="1" parent="1">
          <mxGeometry x="505" y="430" width="120" height="60" as="geometry" />
        </mxCell>
        <mxCell id="Tlv0mU6QZfII-HZCm7lc-26" value="" style="ellipse;whiteSpace=wrap;html=1;aspect=fixed;" vertex="1" parent="1">
          <mxGeometry x="545" y="520" width="40" height="40" as="geometry" />
        </mxCell>
        <mxCell id="Tlv0mU6QZfII-HZCm7lc-27" value="" style="ellipse;whiteSpace=wrap;html=1;aspect=fixed;" vertex="1" parent="1">
          <mxGeometry x="550" y="525" width="30" height="30" as="geometry" />
        </mxCell>
        <mxCell id="Tlv0mU6QZfII-HZCm7lc-35" value="" style="endArrow=none;html=1;rounded=0;" edge="1" parent="1">
          <mxGeometry width="50" height="50" relative="1" as="geometry">
            <mxPoint x="819.0000000000002" y="2170.470588235294" as="sourcePoint" />
            <mxPoint x="819.0000000000002" y="2189.529411764706" as="targetPoint" />
          </mxGeometry>
        </mxCell>
        <mxCell id="Tlv0mU6QZfII-HZCm7lc-36" value="" style="endArrow=none;html=1;rounded=0;" edge="1" parent="1">
          <mxGeometry width="50" height="50" relative="1" as="geometry">
            <mxPoint x="408.65838509316745" y="30" as="sourcePoint" />
            <mxPoint x="409" y="1370" as="targetPoint" />
          </mxGeometry>
        </mxCell>
        <mxCell id="Tlv0mU6QZfII-HZCm7lc-38" value="" style="endArrow=none;html=1;rounded=0;" edge="1" parent="1">
          <mxGeometry width="50" height="50" relative="1" as="geometry">
            <mxPoint y="700" as="sourcePoint" />
            <mxPoint x="810" y="700" as="targetPoint" />
          </mxGeometry>
        </mxCell>
        <mxCell id="Tlv0mU6QZfII-HZCm7lc-39" value="Предоставление отчета клиенту" style="text;html=1;align=center;verticalAlign=middle;whiteSpace=wrap;rounded=0;" vertex="1" parent="1">
          <mxGeometry x="19" y="720" width="201" height="30" as="geometry" />
        </mxCell>
        <mxCell id="Tlv0mU6QZfII-HZCm7lc-40" value="Менеджер" style="text;html=1;align=center;verticalAlign=middle;whiteSpace=wrap;rounded=0;" vertex="1" parent="1">
          <mxGeometry x="585" y="750" width="60" height="30" as="geometry" />
        </mxCell>
        <mxCell id="Tlv0mU6QZfII-HZCm7lc-41" value="Система" style="text;html=1;align=center;verticalAlign=middle;whiteSpace=wrap;rounded=0;" vertex="1" parent="1">
          <mxGeometry x="140" y="760" width="60" height="30" as="geometry" />
        </mxCell>
        <mxCell id="Tlv0mU6QZfII-HZCm7lc-48" style="edgeStyle=none;rounded=0;orthogonalLoop=1;jettySize=auto;html=1;exitX=0.5;exitY=1;exitDx=0;exitDy=0;entryX=0.5;entryY=0;entryDx=0;entryDy=0;" edge="1" parent="1" source="Tlv0mU6QZfII-HZCm7lc-42" target="Tlv0mU6QZfII-HZCm7lc-45">
          <mxGeometry relative="1" as="geometry" />
        </mxCell>
        <mxCell id="Tlv0mU6QZfII-HZCm7lc-42" value="" style="ellipse;whiteSpace=wrap;html=1;aspect=fixed;" vertex="1" parent="1">
          <mxGeometry x="595" y="800" width="40" height="40" as="geometry" />
        </mxCell>
        <mxCell id="Tlv0mU6QZfII-HZCm7lc-45" value="Заходит в систему" style="rounded=0;whiteSpace=wrap;html=1;" vertex="1" parent="1">
          <mxGeometry x="555" y="860" width="120" height="60" as="geometry" />
        </mxCell>
        <mxCell id="Tlv0mU6QZfII-HZCm7lc-58" style="edgeStyle=orthogonalEdgeStyle;rounded=0;orthogonalLoop=1;jettySize=auto;html=1;exitX=0.5;exitY=1;exitDx=0;exitDy=0;" edge="1" parent="1" source="Tlv0mU6QZfII-HZCm7lc-46">
          <mxGeometry relative="1" as="geometry">
            <mxPoint x="550" y="990" as="targetPoint" />
            <Array as="points">
              <mxPoint x="170" y="970" />
              <mxPoint x="430" y="970" />
              <mxPoint x="430" y="990" />
            </Array>
          </mxGeometry>
        </mxCell>
        <mxCell id="Tlv0mU6QZfII-HZCm7lc-46" value="Отображает начальный экран менеджера" style="rounded=0;whiteSpace=wrap;html=1;" vertex="1" parent="1">
          <mxGeometry x="110" y="870" width="120" height="60" as="geometry" />
        </mxCell>
        <mxCell id="Tlv0mU6QZfII-HZCm7lc-62" style="edgeStyle=orthogonalEdgeStyle;rounded=0;orthogonalLoop=1;jettySize=auto;html=1;exitX=0.5;exitY=1;exitDx=0;exitDy=0;entryX=1;entryY=0.5;entryDx=0;entryDy=0;" edge="1" parent="1" source="Tlv0mU6QZfII-HZCm7lc-49" target="Tlv0mU6QZfII-HZCm7lc-50">
          <mxGeometry relative="1" as="geometry" />
        </mxCell>
        <mxCell id="Tlv0mU6QZfII-HZCm7lc-49" value="Выбирает нужный отчет" style="rounded=0;whiteSpace=wrap;html=1;" vertex="1" parent="1">
          <mxGeometry x="555" y="960" width="120" height="60" as="geometry" />
        </mxCell>
        <mxCell id="Tlv0mU6QZfII-HZCm7lc-64" style="edgeStyle=orthogonalEdgeStyle;rounded=0;orthogonalLoop=1;jettySize=auto;html=1;exitX=0.5;exitY=1;exitDx=0;exitDy=0;entryX=0;entryY=0.5;entryDx=0;entryDy=0;" edge="1" parent="1" source="Tlv0mU6QZfII-HZCm7lc-50" target="Tlv0mU6QZfII-HZCm7lc-63">
          <mxGeometry relative="1" as="geometry" />
        </mxCell>
        <mxCell id="Tlv0mU6QZfII-HZCm7lc-50" value="Система отображает выбранный отчет" style="rounded=0;whiteSpace=wrap;html=1;" vertex="1" parent="1">
          <mxGeometry x="110" y="990" width="120" height="60" as="geometry" />
        </mxCell>
        <mxCell id="Tlv0mU6QZfII-HZCm7lc-56" style="edgeStyle=orthogonalEdgeStyle;rounded=0;orthogonalLoop=1;jettySize=auto;html=1;exitX=0;exitY=0.5;exitDx=0;exitDy=0;entryX=0.305;entryY=-0.018;entryDx=0;entryDy=0;entryPerimeter=0;" edge="1" parent="1" source="Tlv0mU6QZfII-HZCm7lc-45" target="Tlv0mU6QZfII-HZCm7lc-46">
          <mxGeometry relative="1" as="geometry">
            <Array as="points">
              <mxPoint x="392" y="890" />
              <mxPoint x="392" y="830" />
              <mxPoint x="147" y="830" />
            </Array>
          </mxGeometry>
        </mxCell>
        <mxCell id="Tlv0mU6QZfII-HZCm7lc-66" style="edgeStyle=orthogonalEdgeStyle;rounded=0;orthogonalLoop=1;jettySize=auto;html=1;exitX=0.5;exitY=1;exitDx=0;exitDy=0;entryX=1;entryY=0.75;entryDx=0;entryDy=0;" edge="1" parent="1" source="Tlv0mU6QZfII-HZCm7lc-63" target="Tlv0mU6QZfII-HZCm7lc-65">
          <mxGeometry relative="1" as="geometry" />
        </mxCell>
        <mxCell id="Tlv0mU6QZfII-HZCm7lc-63" value="Нажимает отправить и выбирает пользователя" style="rounded=0;whiteSpace=wrap;html=1;" vertex="1" parent="1">
          <mxGeometry x="540" y="1070" width="120" height="60" as="geometry" />
        </mxCell>
        <mxCell id="Tlv0mU6QZfII-HZCm7lc-70" style="edgeStyle=orthogonalEdgeStyle;rounded=0;orthogonalLoop=1;jettySize=auto;html=1;exitX=0.5;exitY=1;exitDx=0;exitDy=0;entryX=0.5;entryY=0;entryDx=0;entryDy=0;" edge="1" parent="1" source="Tlv0mU6QZfII-HZCm7lc-65" target="Tlv0mU6QZfII-HZCm7lc-68">
          <mxGeometry relative="1" as="geometry" />
        </mxCell>
        <mxCell id="Tlv0mU6QZfII-HZCm7lc-65" value="Система отправляет отчет пользователю" style="rounded=0;whiteSpace=wrap;html=1;" vertex="1" parent="1">
          <mxGeometry x="140" y="1160" width="120" height="60" as="geometry" />
        </mxCell>
        <mxCell id="Tlv0mU6QZfII-HZCm7lc-68" value="" style="ellipse;whiteSpace=wrap;html=1;aspect=fixed;" vertex="1" parent="1">
          <mxGeometry x="180" y="1260" width="40" height="40" as="geometry" />
        </mxCell>
        <mxCell id="Tlv0mU6QZfII-HZCm7lc-69" value="" style="ellipse;whiteSpace=wrap;html=1;aspect=fixed;" vertex="1" parent="1">
          <mxGeometry x="185" y="1265" width="30" height="30" as="geometry" />
        </mxCell>
        <mxCell id="Tlv0mU6QZfII-HZCm7lc-71" value="" style="endArrow=none;html=1;rounded=0;" edge="1" parent="1">
          <mxGeometry width="50" height="50" relative="1" as="geometry">
            <mxPoint x="9" y="1360" as="sourcePoint" />
            <mxPoint x="819" y="1360" as="targetPoint" />
          </mxGeometry>
        </mxCell>
        <mxCell id="Tlv0mU6QZfII-HZCm7lc-73" value="Внесение изменений по запросу клиента" style="text;html=1;align=center;verticalAlign=middle;whiteSpace=wrap;rounded=0;" vertex="1" parent="1">
          <mxGeometry x="30" y="1390" width="250" height="30" as="geometry" />
        </mxCell>
        <mxCell id="Tlv0mU6QZfII-HZCm7lc-74" value="" style="endArrow=none;html=1;rounded=0;" edge="1" parent="1">
          <mxGeometry width="50" height="50" relative="1" as="geometry">
            <mxPoint x="300" y="1460" as="sourcePoint" />
            <mxPoint x="300" y="2332.56005859375" as="targetPoint" />
          </mxGeometry>
        </mxCell>
        <mxCell id="Tlv0mU6QZfII-HZCm7lc-75" value="" style="endArrow=none;html=1;rounded=0;" edge="1" parent="1">
          <mxGeometry width="50" height="50" relative="1" as="geometry">
            <mxPoint x="570" y="1460" as="sourcePoint" />
            <mxPoint x="570" y="2340" as="targetPoint" />
          </mxGeometry>
        </mxCell>
        <mxCell id="Tlv0mU6QZfII-HZCm7lc-77" value="Клиент" style="text;html=1;align=center;verticalAlign=middle;whiteSpace=wrap;rounded=0;" vertex="1" parent="1">
          <mxGeometry x="100" y="1450" width="60" height="30" as="geometry" />
        </mxCell>
        <mxCell id="Tlv0mU6QZfII-HZCm7lc-78" value="Система" style="text;html=1;align=center;verticalAlign=middle;whiteSpace=wrap;rounded=0;" vertex="1" parent="1">
          <mxGeometry x="414" y="1460" width="60" height="30" as="geometry" />
        </mxCell>
        <mxCell id="Tlv0mU6QZfII-HZCm7lc-80" value="Менеджер" style="text;html=1;align=center;verticalAlign=middle;whiteSpace=wrap;rounded=0;" vertex="1" parent="1">
          <mxGeometry x="690" y="1460" width="60" height="30" as="geometry" />
        </mxCell>
        <mxCell id="Tlv0mU6QZfII-HZCm7lc-85" style="edgeStyle=orthogonalEdgeStyle;rounded=0;orthogonalLoop=1;jettySize=auto;html=1;exitX=1;exitY=0.5;exitDx=0;exitDy=0;entryX=0;entryY=0.5;entryDx=0;entryDy=0;" edge="1" parent="1" source="Tlv0mU6QZfII-HZCm7lc-81" target="Tlv0mU6QZfII-HZCm7lc-84">
          <mxGeometry relative="1" as="geometry" />
        </mxCell>
        <mxCell id="Tlv0mU6QZfII-HZCm7lc-81" value="&lt;p class=&quot;MsoNormal&quot;&gt;&lt;span style=&quot;font-size:12.0pt;line-height:107%;font-family:&lt;br/&gt;&amp;quot;Times New Roman&amp;quot;,serif&quot;&gt;Клиент отправляет запрос на изменение.&amp;nbsp;&lt;/span&gt;&lt;/p&gt;" style="rounded=0;whiteSpace=wrap;html=1;" vertex="1" parent="1">
          <mxGeometry x="52.5" y="1550" width="155" height="60" as="geometry" />
        </mxCell>
        <mxCell id="Tlv0mU6QZfII-HZCm7lc-83" style="edgeStyle=orthogonalEdgeStyle;rounded=0;orthogonalLoop=1;jettySize=auto;html=1;exitX=0.5;exitY=1;exitDx=0;exitDy=0;entryX=0.5;entryY=0;entryDx=0;entryDy=0;" edge="1" parent="1" source="Tlv0mU6QZfII-HZCm7lc-82" target="Tlv0mU6QZfII-HZCm7lc-81">
          <mxGeometry relative="1" as="geometry" />
        </mxCell>
        <mxCell id="Tlv0mU6QZfII-HZCm7lc-82" value="" style="ellipse;whiteSpace=wrap;html=1;aspect=fixed;" vertex="1" parent="1">
          <mxGeometry x="115" y="1490" width="30" height="30" as="geometry" />
        </mxCell>
        <mxCell id="Tlv0mU6QZfII-HZCm7lc-87" style="edgeStyle=orthogonalEdgeStyle;rounded=0;orthogonalLoop=1;jettySize=auto;html=1;exitX=1;exitY=0.5;exitDx=0;exitDy=0;entryX=0.5;entryY=0;entryDx=0;entryDy=0;" edge="1" parent="1" source="Tlv0mU6QZfII-HZCm7lc-84" target="Tlv0mU6QZfII-HZCm7lc-86">
          <mxGeometry relative="1" as="geometry" />
        </mxCell>
        <mxCell id="Tlv0mU6QZfII-HZCm7lc-84" value="&lt;p class=&quot;MsoNormal&quot;&gt;&lt;span style=&quot;font-size:12.0pt;line-height:107%;font-family:&lt;br/&gt;&amp;quot;Times New Roman&amp;quot;,serif&quot;&gt;Система передает запрос менеджеру&lt;/span&gt;&lt;/p&gt;" style="rounded=0;whiteSpace=wrap;html=1;" vertex="1" parent="1">
          <mxGeometry x="355" y="1560" width="155" height="60" as="geometry" />
        </mxCell>
        <mxCell id="Tlv0mU6QZfII-HZCm7lc-89" style="edgeStyle=orthogonalEdgeStyle;rounded=0;orthogonalLoop=1;jettySize=auto;html=1;exitX=0.5;exitY=1;exitDx=0;exitDy=0;entryX=0.5;entryY=0;entryDx=0;entryDy=0;" edge="1" parent="1" source="Tlv0mU6QZfII-HZCm7lc-86" target="Tlv0mU6QZfII-HZCm7lc-88">
          <mxGeometry relative="1" as="geometry" />
        </mxCell>
        <mxCell id="Tlv0mU6QZfII-HZCm7lc-86" value="&lt;p class=&quot;MsoNormal&quot;&gt;&lt;span style=&quot;font-size:12.0pt;line-height:107%;font-family:&lt;br/&gt;&amp;quot;Times New Roman&amp;quot;,serif&quot;&gt;2. Менеджер проектов оценивает возможность и&lt;br/&gt;последствия внесения изменений.&amp;nbsp;&lt;/span&gt;&lt;/p&gt;" style="rounded=0;whiteSpace=wrap;html=1;" vertex="1" parent="1">
          <mxGeometry x="600" y="1620" width="210" height="120" as="geometry" />
        </mxCell>
        <mxCell id="Tlv0mU6QZfII-HZCm7lc-92" style="edgeStyle=orthogonalEdgeStyle;rounded=0;orthogonalLoop=1;jettySize=auto;html=1;exitX=1;exitY=0.5;exitDx=0;exitDy=0;entryX=0.5;entryY=0;entryDx=0;entryDy=0;" edge="1" parent="1" source="Tlv0mU6QZfII-HZCm7lc-88" target="Tlv0mU6QZfII-HZCm7lc-91">
          <mxGeometry relative="1" as="geometry" />
        </mxCell>
        <mxCell id="Tlv0mU6QZfII-HZCm7lc-88" value="" style="rhombus;whiteSpace=wrap;html=1;" vertex="1" parent="1">
          <mxGeometry x="330" y="1770" width="180" height="80" as="geometry" />
        </mxCell>
        <mxCell id="Tlv0mU6QZfII-HZCm7lc-90" value="&lt;span style=&quot;color: rgb(255, 0, 0); font-size: 13px;&quot;&gt;Изменения невозможно внести без значительного&lt;/span&gt;&lt;br style=&quot;color: rgb(255, 0, 0); font-size: 13px;&quot;&gt;&lt;span style=&quot;color: rgb(255, 0, 0); font-size: 13px;&quot;&gt;увеличения бюджета или времени.&lt;/span&gt;" style="text;html=1;align=center;verticalAlign=middle;whiteSpace=wrap;rounded=0;" vertex="1" parent="1">
          <mxGeometry x="310" y="1860" width="230" height="30" as="geometry" />
        </mxCell>
        <mxCell id="Tlv0mU6QZfII-HZCm7lc-96" style="edgeStyle=orthogonalEdgeStyle;rounded=0;orthogonalLoop=1;jettySize=auto;html=1;exitX=0.5;exitY=1;exitDx=0;exitDy=0;entryX=0.5;entryY=0;entryDx=0;entryDy=0;" edge="1" parent="1" source="Tlv0mU6QZfII-HZCm7lc-91" target="Tlv0mU6QZfII-HZCm7lc-95">
          <mxGeometry relative="1" as="geometry">
            <Array as="points">
              <mxPoint x="705" y="1970" />
              <mxPoint x="120" y="1970" />
            </Array>
          </mxGeometry>
        </mxCell>
        <mxCell id="Tlv0mU6QZfII-HZCm7lc-91" value="&lt;span style=&quot;font-size:12.0pt;line-height:107%;&lt;br/&gt;font-family:&amp;quot;Times New Roman&amp;quot;,serif;mso-fareast-font-family:Calibri;mso-fareast-theme-font:&lt;br/&gt;minor-latin;mso-ansi-language:RU;mso-fareast-language:EN-US;mso-bidi-language:&lt;br/&gt;AR-SA&quot;&gt;Менеджер информирует клиента о возможных последствиях&amp;nbsp;&lt;/span&gt;" style="rounded=0;whiteSpace=wrap;html=1;" vertex="1" parent="1">
          <mxGeometry x="627.5" y="1840" width="155" height="100" as="geometry" />
        </mxCell>
        <mxCell id="Tlv0mU6QZfII-HZCm7lc-93" value="Да" style="text;html=1;align=center;verticalAlign=middle;whiteSpace=wrap;rounded=0;" vertex="1" parent="1">
          <mxGeometry x="495" y="1780" width="60" height="30" as="geometry" />
        </mxCell>
        <mxCell id="Tlv0mU6QZfII-HZCm7lc-99" style="edgeStyle=orthogonalEdgeStyle;rounded=0;orthogonalLoop=1;jettySize=auto;html=1;exitX=1;exitY=0.5;exitDx=0;exitDy=0;" edge="1" parent="1" source="Tlv0mU6QZfII-HZCm7lc-95" target="Tlv0mU6QZfII-HZCm7lc-100">
          <mxGeometry relative="1" as="geometry">
            <mxPoint x="570" y="2050" as="targetPoint" />
            <Array as="points">
              <mxPoint x="400" y="2050" />
              <mxPoint x="400" y="2050" />
            </Array>
          </mxGeometry>
        </mxCell>
        <mxCell id="Tlv0mU6QZfII-HZCm7lc-95" value="" style="rhombus;whiteSpace=wrap;html=1;" vertex="1" parent="1">
          <mxGeometry x="79.5" y="2030" width="80" height="40" as="geometry" />
        </mxCell>
        <mxCell id="Tlv0mU6QZfII-HZCm7lc-97" value="Клиент согласен? и может увеличить бюджет" style="text;html=1;align=center;verticalAlign=middle;whiteSpace=wrap;rounded=0;" vertex="1" parent="1">
          <mxGeometry x="140" y="2000" width="110" height="30" as="geometry" />
        </mxCell>
        <mxCell id="Tlv0mU6QZfII-HZCm7lc-98" style="edgeStyle=orthogonalEdgeStyle;rounded=0;orthogonalLoop=1;jettySize=auto;html=1;exitX=0.5;exitY=1;exitDx=0;exitDy=0;" edge="1" parent="1" source="Tlv0mU6QZfII-HZCm7lc-97" target="Tlv0mU6QZfII-HZCm7lc-97">
          <mxGeometry relative="1" as="geometry" />
        </mxCell>
        <mxCell id="Tlv0mU6QZfII-HZCm7lc-102" style="edgeStyle=orthogonalEdgeStyle;rounded=0;orthogonalLoop=1;jettySize=auto;html=1;exitX=0.5;exitY=1;exitDx=0;exitDy=0;entryX=0.5;entryY=0;entryDx=0;entryDy=0;" edge="1" parent="1" source="Tlv0mU6QZfII-HZCm7lc-100" target="Tlv0mU6QZfII-HZCm7lc-101">
          <mxGeometry relative="1" as="geometry" />
        </mxCell>
        <mxCell id="Tlv0mU6QZfII-HZCm7lc-100" value="&lt;p class=&quot;MsoNormal&quot;&gt;&lt;span style=&quot;font-size:12.0pt;line-height:107%;font-family:&lt;br/&gt;&amp;quot;Times New Roman&amp;quot;,serif&quot;&gt;Менеджер координирует внесение изменений с&lt;br/&gt;командой.&amp;nbsp;&lt;/span&gt;&lt;/p&gt;" style="rounded=0;whiteSpace=wrap;html=1;" vertex="1" parent="1">
          <mxGeometry x="635" y="1990" width="155" height="100" as="geometry" />
        </mxCell>
        <mxCell id="Tlv0mU6QZfII-HZCm7lc-104" style="edgeStyle=orthogonalEdgeStyle;rounded=0;orthogonalLoop=1;jettySize=auto;html=1;exitX=0.5;exitY=1;exitDx=0;exitDy=0;entryX=0.5;entryY=0;entryDx=0;entryDy=0;" edge="1" parent="1" source="Tlv0mU6QZfII-HZCm7lc-101" target="Tlv0mU6QZfII-HZCm7lc-103">
          <mxGeometry relative="1" as="geometry" />
        </mxCell>
        <mxCell id="Tlv0mU6QZfII-HZCm7lc-101" value="Формирует отчет и отправляет клиенту" style="rounded=0;whiteSpace=wrap;html=1;" vertex="1" parent="1">
          <mxGeometry x="652.5" y="2140" width="120" height="60" as="geometry" />
        </mxCell>
        <mxCell id="Tlv0mU6QZfII-HZCm7lc-103" value="" style="ellipse;whiteSpace=wrap;html=1;aspect=fixed;" vertex="1" parent="1">
          <mxGeometry x="687" y="2260" width="50" height="50" as="geometry" />
        </mxCell>
        <mxCell id="Tlv0mU6QZfII-HZCm7lc-107" value="Да" style="text;html=1;align=center;verticalAlign=middle;whiteSpace=wrap;rounded=0;" vertex="1" parent="1">
          <mxGeometry x="159.5" y="2060" width="60" height="30" as="geometry" />
        </mxCell>
        <mxCell id="Tlv0mU6QZfII-HZCm7lc-115" style="edgeStyle=orthogonalEdgeStyle;rounded=0;orthogonalLoop=1;jettySize=auto;html=1;exitX=1;exitY=1;exitDx=0;exitDy=0;entryX=0;entryY=0.5;entryDx=0;entryDy=0;" edge="1" parent="1" source="Tlv0mU6QZfII-HZCm7lc-109" target="Tlv0mU6QZfII-HZCm7lc-114">
          <mxGeometry relative="1" as="geometry" />
        </mxCell>
        <mxCell id="Tlv0mU6QZfII-HZCm7lc-109" value="нет" style="text;html=1;align=center;verticalAlign=middle;whiteSpace=wrap;rounded=0;" vertex="1" parent="1">
          <mxGeometry x="21.5" y="2022" width="60" height="30" as="geometry" />
        </mxCell>
        <mxCell id="Tlv0mU6QZfII-HZCm7lc-116" style="edgeStyle=orthogonalEdgeStyle;rounded=0;orthogonalLoop=1;jettySize=auto;html=1;exitX=1;exitY=0.5;exitDx=0;exitDy=0;entryX=0;entryY=1;entryDx=0;entryDy=0;" edge="1" parent="1" source="Tlv0mU6QZfII-HZCm7lc-114" target="Tlv0mU6QZfII-HZCm7lc-100">
          <mxGeometry relative="1" as="geometry">
            <Array as="points">
              <mxPoint x="480" y="2140" />
              <mxPoint x="635" y="2140" />
            </Array>
          </mxGeometry>
        </mxCell>
        <mxCell id="Tlv0mU6QZfII-HZCm7lc-114" value="вопрос передается руководителю на рассмотрение" style="rounded=0;whiteSpace=wrap;html=1;" vertex="1" parent="1">
          <mxGeometry x="360" y="2120" width="120" height="60" as="geometry" />
        </mxCell>
        <mxCell id="Tlv0mU6QZfII-HZCm7lc-117" value="&lt;span style=&quot;font-size:12.0pt;line-height:107%;&lt;br/&gt;font-family:&amp;quot;Times New Roman&amp;quot;,serif;mso-fareast-font-family:Calibri;mso-fareast-theme-font:&lt;br/&gt;minor-latin;mso-ansi-language:RU;mso-fareast-language:EN-US;mso-bidi-language:&lt;br/&gt;AR-SA&quot;&gt;Планирование рекламной кампании&lt;/span&gt;" style="text;html=1;align=center;verticalAlign=middle;whiteSpace=wrap;rounded=0;" vertex="1" parent="1">
          <mxGeometry x="39.5" y="2370" width="300" height="30" as="geometry" />
        </mxCell>
        <mxCell id="Tlv0mU6QZfII-HZCm7lc-118" value="Система" style="text;html=1;align=center;verticalAlign=middle;whiteSpace=wrap;rounded=0;" vertex="1" parent="1">
          <mxGeometry x="260" y="2410" width="60" height="30" as="geometry" />
        </mxCell>
        <mxCell id="Tlv0mU6QZfII-HZCm7lc-119" value="менеджер" style="text;html=1;align=center;verticalAlign=middle;whiteSpace=wrap;rounded=0;" vertex="1" parent="1">
          <mxGeometry x="552.5" y="2420" width="95" height="30" as="geometry" />
        </mxCell>
        <mxCell id="Tlv0mU6QZfII-HZCm7lc-120" value="" style="endArrow=none;html=1;rounded=0;" edge="1" parent="1">
          <mxGeometry width="50" height="50" relative="1" as="geometry">
            <mxPoint x="409" y="1730" as="sourcePoint" />
            <mxPoint x="419" y="3160" as="targetPoint" />
          </mxGeometry>
        </mxCell>
        <mxCell id="Tlv0mU6QZfII-HZCm7lc-131" style="edgeStyle=orthogonalEdgeStyle;rounded=0;orthogonalLoop=1;jettySize=auto;html=1;exitX=0.5;exitY=1;exitDx=0;exitDy=0;entryX=0.5;entryY=0;entryDx=0;entryDy=0;" edge="1" parent="1" source="Tlv0mU6QZfII-HZCm7lc-121" target="Tlv0mU6QZfII-HZCm7lc-129">
          <mxGeometry relative="1" as="geometry">
            <mxPoint x="175" y="2470" as="targetPoint" />
          </mxGeometry>
        </mxCell>
        <mxCell id="Tlv0mU6QZfII-HZCm7lc-121" value="" style="ellipse;whiteSpace=wrap;html=1;aspect=fixed;" vertex="1" parent="1">
          <mxGeometry x="155" y="2410" width="40" height="40" as="geometry" />
        </mxCell>
        <mxCell id="Tlv0mU6QZfII-HZCm7lc-125" style="edgeStyle=orthogonalEdgeStyle;rounded=0;orthogonalLoop=1;jettySize=auto;html=1;exitX=0.5;exitY=1;exitDx=0;exitDy=0;entryX=0.5;entryY=0;entryDx=0;entryDy=0;" edge="1" parent="1" source="Tlv0mU6QZfII-HZCm7lc-122" target="Tlv0mU6QZfII-HZCm7lc-124">
          <mxGeometry relative="1" as="geometry" />
        </mxCell>
        <mxCell id="Tlv0mU6QZfII-HZCm7lc-122" value="&lt;span style=&quot;color: rgba(0, 0, 0, 0); font-family: monospace; font-size: 0px; text-align: start; text-wrap: nowrap;&quot;&gt;%3CmxGraphModel%3E%3Croot%3E%3CmxCell%20id%3D%220%22%2F%3E%3CmxCell%20id%3D%221%22%20parent%3D%220%22%2F%3E%3CmxCell%20id%3D%222%22%20value%3D%22%22%20style%3D%22endArrow%3Dnone%3Bhtml%3D1%3Brounded%3D0%3B%22%20edge%3D%221%22%20parent%3D%221%22%3E%3CmxGeometry%20width%3D%2250%22%20height%3D%2250%22%20relative%3D%221%22%20as%3D%22geometry%22%3E%3CmxPoint%20x%3D%22570%22%20y%3D%221460%22%20as%3D%22sourcePoint%22%2F%3E%3CmxPoint%20x%3D%22570%22%20y%3D%222340%22%20as%3D%22targetPoint%22%2F%3E%3C%2FmxGeometry%3E%3C%2FmxCell%3E%3C%2Froot%3E%3C%2FmxGraphModel%3E&lt;/span&gt;&lt;span style=&quot;font-family: &amp;quot;Times New Roman&amp;quot;, serif; font-size: 12pt; background-color: initial;&quot;&gt;Менеджер проектов определяет цели кампании.&lt;/span&gt;&lt;p class=&quot;MsoNormal&quot;&gt;&lt;span style=&quot;font-size:12.0pt;line-height:107%;font-family:&lt;br/&gt;&amp;quot;Times New Roman&amp;quot;,serif&quot;&gt;&lt;/span&gt;&lt;/p&gt;" style="rounded=0;whiteSpace=wrap;html=1;" vertex="1" parent="1">
          <mxGeometry x="532.5" y="2550" width="165" height="80" as="geometry" />
        </mxCell>
        <mxCell id="Tlv0mU6QZfII-HZCm7lc-124" value="&lt;span style=&quot;font-size:12.0pt;line-height:107%;&lt;br/&gt;font-family:&amp;quot;Times New Roman&amp;quot;,serif;mso-fareast-font-family:Calibri;mso-fareast-theme-font:&lt;br/&gt;minor-latin;mso-ansi-language:RU;mso-fareast-language:EN-US;mso-bidi-language:&lt;br/&gt;AR-SA&quot;&gt;Выбираются каналы распространения.&lt;/span&gt;" style="rounded=0;whiteSpace=wrap;html=1;" vertex="1" parent="1">
          <mxGeometry x="522.5" y="2670" width="185" height="60" as="geometry" />
        </mxCell>
        <mxCell id="Tlv0mU6QZfII-HZCm7lc-126" value="&lt;font style=&quot;font-size: 15px;&quot;&gt;Разрабатывается план бюджета&lt;/font&gt;" style="rounded=0;whiteSpace=wrap;html=1;" vertex="1" parent="1">
          <mxGeometry x="532.5" y="2760" width="180" height="80" as="geometry" />
        </mxCell>
        <mxCell id="Tlv0mU6QZfII-HZCm7lc-127" value="&lt;span style=&quot;font-size:12.0pt;line-height:107%;&lt;br/&gt;font-family:&amp;quot;Times New Roman&amp;quot;,serif;mso-fareast-font-family:Calibri;mso-fareast-theme-font:&lt;br/&gt;minor-latin;mso-ansi-language:RU;mso-fareast-language:EN-US;mso-bidi-language:&lt;br/&gt;AR-SA&quot;&gt;Составляется график реализации кампании&lt;/span&gt;" style="rounded=0;whiteSpace=wrap;html=1;" vertex="1" parent="1">
          <mxGeometry x="532.5" y="2860" width="177.5" height="80" as="geometry" />
        </mxCell>
        <mxCell id="Tlv0mU6QZfII-HZCm7lc-133" style="edgeStyle=orthogonalEdgeStyle;rounded=0;orthogonalLoop=1;jettySize=auto;html=1;exitX=0.5;exitY=1;exitDx=0;exitDy=0;entryX=0.5;entryY=0;entryDx=0;entryDy=0;" edge="1" parent="1" source="Tlv0mU6QZfII-HZCm7lc-128" target="Tlv0mU6QZfII-HZCm7lc-132">
          <mxGeometry relative="1" as="geometry" />
        </mxCell>
        <mxCell id="Tlv0mU6QZfII-HZCm7lc-128" value="&lt;p class=&quot;MsoNormal&quot;&gt;&lt;span style=&quot;font-size:12.0pt;line-height:107%;font-family:&lt;br/&gt;&amp;quot;Times New Roman&amp;quot;,serif&quot;&gt;План предоставляется клиенту на утверждение.&lt;/span&gt;&lt;/p&gt;" style="rounded=0;whiteSpace=wrap;html=1;" vertex="1" parent="1">
          <mxGeometry x="532.5" y="2960" width="182.5" height="80" as="geometry" />
        </mxCell>
        <mxCell id="Tlv0mU6QZfII-HZCm7lc-130" style="edgeStyle=orthogonalEdgeStyle;rounded=0;orthogonalLoop=1;jettySize=auto;html=1;exitX=1;exitY=0.5;exitDx=0;exitDy=0;entryX=0;entryY=0.5;entryDx=0;entryDy=0;" edge="1" parent="1" source="Tlv0mU6QZfII-HZCm7lc-129" target="Tlv0mU6QZfII-HZCm7lc-122">
          <mxGeometry relative="1" as="geometry" />
        </mxCell>
        <mxCell id="Tlv0mU6QZfII-HZCm7lc-129" value="Предоставляет менеджеру доступ к проекту" style="rounded=0;whiteSpace=wrap;html=1;" vertex="1" parent="1">
          <mxGeometry x="115" y="2480" width="120" height="60" as="geometry" />
        </mxCell>
        <mxCell id="Tlv0mU6QZfII-HZCm7lc-132" value="" style="ellipse;whiteSpace=wrap;html=1;aspect=fixed;" vertex="1" parent="1">
          <mxGeometry x="594.38" y="3080" width="53.75" height="53.75" as="geometry" />
        </mxCell>
        <mxCell id="Tlv0mU6QZfII-HZCm7lc-134" value="" style="ellipse;whiteSpace=wrap;html=1;aspect=fixed;" vertex="1" parent="1">
          <mxGeometry x="601.26" y="3086.88" width="40" height="40" as="geometry" />
        </mxCell>
        <mxCell id="Tlv0mU6QZfII-HZCm7lc-135" value="" style="endArrow=none;html=1;rounded=0;" edge="1" parent="1">
          <mxGeometry width="50" height="50" relative="1" as="geometry">
            <mxPoint x="3" y="2338" as="sourcePoint" />
            <mxPoint x="813" y="2338" as="targetPoint" />
          </mxGeometry>
        </mxCell>
        <mxCell id="Tlv0mU6QZfII-HZCm7lc-136" value="" style="endArrow=none;html=1;rounded=0;" edge="1" parent="1">
          <mxGeometry width="50" height="50" relative="1" as="geometry">
            <mxPoint x="9" y="3160" as="sourcePoint" />
            <mxPoint x="819" y="3160" as="targetPoint" />
          </mxGeometry>
        </mxCell>
        <mxCell id="Tlv0mU6QZfII-HZCm7lc-137" value="&lt;br&gt;&lt;span style=&quot;font-size:12.0pt;line-height:107%;&lt;br/&gt;font-family:&amp;quot;Times New Roman&amp;quot;,serif;mso-fareast-font-family:Calibri;mso-fareast-theme-font:&lt;br/&gt;minor-latin;mso-ansi-language:RU;mso-fareast-language:EN-US;mso-bidi-language:&lt;br/&gt;AR-SA&quot;&gt;Разработка рекламного концепта&lt;/span&gt;&lt;div&gt;&lt;br/&gt;&lt;/div&gt;" style="text;html=1;align=center;verticalAlign=middle;whiteSpace=wrap;rounded=0;" vertex="1" parent="1">
          <mxGeometry x="19" y="3170" width="291" height="70" as="geometry" />
        </mxCell>
        <mxCell id="Tlv0mU6QZfII-HZCm7lc-138" value="" style="endArrow=none;html=1;rounded=0;entryX=1;entryY=1;entryDx=0;entryDy=0;" edge="1" parent="1">
          <mxGeometry width="50" height="50" relative="1" as="geometry">
            <mxPoint x="280" y="4400" as="sourcePoint" />
            <mxPoint x="280" y="3260" as="targetPoint" />
          </mxGeometry>
        </mxCell>
        <mxCell id="Tlv0mU6QZfII-HZCm7lc-139" value="" style="endArrow=none;html=1;rounded=0;entryX=1;entryY=1;entryDx=0;entryDy=0;" edge="1" parent="1">
          <mxGeometry width="50" height="50" relative="1" as="geometry">
            <mxPoint x="540" y="4400" as="sourcePoint" />
            <mxPoint x="540" y="3260" as="targetPoint" />
          </mxGeometry>
        </mxCell>
        <mxCell id="Tlv0mU6QZfII-HZCm7lc-141" value="Специалисты" style="text;html=1;align=center;verticalAlign=middle;whiteSpace=wrap;rounded=0;" vertex="1" parent="1">
          <mxGeometry x="99.5" y="3280" width="60" height="30" as="geometry" />
        </mxCell>
        <mxCell id="Tlv0mU6QZfII-HZCm7lc-142" value="система" style="text;html=1;align=center;verticalAlign=middle;whiteSpace=wrap;rounded=0;" vertex="1" parent="1">
          <mxGeometry x="395" y="3270" width="60" height="30" as="geometry" />
        </mxCell>
        <mxCell id="Tlv0mU6QZfII-HZCm7lc-143" value="Менеджеры" style="text;html=1;align=center;verticalAlign=middle;whiteSpace=wrap;rounded=0;" vertex="1" parent="1">
          <mxGeometry x="675" y="3270" width="60" height="30" as="geometry" />
        </mxCell>
        <mxCell id="Tlv0mU6QZfII-HZCm7lc-147" style="edgeStyle=orthogonalEdgeStyle;rounded=0;orthogonalLoop=1;jettySize=auto;html=1;exitX=0.5;exitY=1;exitDx=0;exitDy=0;entryX=0.5;entryY=0;entryDx=0;entryDy=0;" edge="1" parent="1" source="Tlv0mU6QZfII-HZCm7lc-145" target="Tlv0mU6QZfII-HZCm7lc-146">
          <mxGeometry relative="1" as="geometry" />
        </mxCell>
        <mxCell id="Tlv0mU6QZfII-HZCm7lc-145" value="&lt;span style=&quot;font-size:12.0pt;line-height:107%;&lt;br/&gt;font-family:&amp;quot;Times New Roman&amp;quot;,serif;mso-fareast-font-family:Calibri;mso-fareast-theme-font:&lt;br/&gt;minor-latin;mso-ansi-language:RU;mso-fareast-language:EN-US;mso-bidi-language:&lt;br/&gt;AR-SA&quot;&gt;Менеджер собирает команду специалистов для разработки концепта.&lt;/span&gt;" style="rounded=0;whiteSpace=wrap;html=1;" vertex="1" parent="1">
          <mxGeometry x="600" y="3340" width="190" height="110" as="geometry" />
        </mxCell>
        <mxCell id="Tlv0mU6QZfII-HZCm7lc-150" style="edgeStyle=orthogonalEdgeStyle;rounded=0;orthogonalLoop=1;jettySize=auto;html=1;exitX=0.5;exitY=1;exitDx=0;exitDy=0;entryX=0.5;entryY=0;entryDx=0;entryDy=0;" edge="1" parent="1" source="Tlv0mU6QZfII-HZCm7lc-146" target="Tlv0mU6QZfII-HZCm7lc-149">
          <mxGeometry relative="1" as="geometry" />
        </mxCell>
        <mxCell id="Tlv0mU6QZfII-HZCm7lc-146" value="Работают над идеями" style="rounded=0;whiteSpace=wrap;html=1;" vertex="1" parent="1">
          <mxGeometry x="60" y="3430" width="120" height="60" as="geometry" />
        </mxCell>
        <mxCell id="Tlv0mU6QZfII-HZCm7lc-152" style="edgeStyle=orthogonalEdgeStyle;rounded=0;orthogonalLoop=1;jettySize=auto;html=1;exitX=0.5;exitY=1;exitDx=0;exitDy=0;entryX=0.5;entryY=0;entryDx=0;entryDy=0;" edge="1" parent="1" source="Tlv0mU6QZfII-HZCm7lc-149" target="Tlv0mU6QZfII-HZCm7lc-151">
          <mxGeometry relative="1" as="geometry">
            <mxPoint x="135.33333333333326" y="3670" as="targetPoint" />
          </mxGeometry>
        </mxCell>
        <mxCell id="Tlv0mU6QZfII-HZCm7lc-149" value="&lt;span style=&quot;font-size:12.0pt;line-height:107%;&lt;br/&gt;font-family:&amp;quot;Times New Roman&amp;quot;,serif;mso-fareast-font-family:Calibri;mso-fareast-theme-font:&lt;br/&gt;minor-latin;mso-ansi-language:RU;mso-fareast-language:EN-US;mso-bidi-language:&lt;br/&gt;AR-SA&quot;&gt;Команда разрабатывает рекламный концепт, включая ключевые сообщения и&lt;br/&gt;визуальные элементы.&lt;/span&gt;" style="rounded=0;whiteSpace=wrap;html=1;" vertex="1" parent="1">
          <mxGeometry x="20" y="3530" width="230" height="90" as="geometry" />
        </mxCell>
        <mxCell id="Tlv0mU6QZfII-HZCm7lc-154" style="edgeStyle=orthogonalEdgeStyle;rounded=0;orthogonalLoop=1;jettySize=auto;html=1;exitX=1;exitY=0.5;exitDx=0;exitDy=0;entryX=0;entryY=0.5;entryDx=0;entryDy=0;" edge="1" parent="1" source="Tlv0mU6QZfII-HZCm7lc-151" target="Tlv0mU6QZfII-HZCm7lc-153">
          <mxGeometry relative="1" as="geometry" />
        </mxCell>
        <mxCell id="Tlv0mU6QZfII-HZCm7lc-151" value="Отправляют менеджеру" style="rounded=0;whiteSpace=wrap;html=1;" vertex="1" parent="1">
          <mxGeometry x="62.5" y="3670" width="127.5" height="50" as="geometry" />
        </mxCell>
        <mxCell id="Tlv0mU6QZfII-HZCm7lc-153" value="Проверяет проект" style="rounded=0;whiteSpace=wrap;html=1;" vertex="1" parent="1">
          <mxGeometry x="630" y="3650" width="120" height="60" as="geometry" />
        </mxCell>
        <mxCell id="Tlv0mU6QZfII-HZCm7lc-160" style="edgeStyle=orthogonalEdgeStyle;rounded=0;orthogonalLoop=1;jettySize=auto;html=1;exitX=0.5;exitY=1;exitDx=0;exitDy=0;entryX=0.5;entryY=0;entryDx=0;entryDy=0;" edge="1" parent="1" source="Tlv0mU6QZfII-HZCm7lc-157" target="Tlv0mU6QZfII-HZCm7lc-159">
          <mxGeometry relative="1" as="geometry" />
        </mxCell>
        <mxCell id="Tlv0mU6QZfII-HZCm7lc-157" value="&lt;span style=&quot;font-size:12.0pt;line-height:107%;&lt;br/&gt;font-family:&amp;quot;Times New Roman&amp;quot;,serif;mso-fareast-font-family:Calibri;mso-fareast-theme-font:&lt;br/&gt;minor-latin;mso-ansi-language:RU;mso-fareast-language:EN-US;mso-bidi-language:&lt;br/&gt;AR-SA&quot;&gt;Вносятся корректировки с учетом замечаний менеджера.&lt;/span&gt;" style="rounded=0;whiteSpace=wrap;html=1;" vertex="1" parent="1">
          <mxGeometry x="75" y="3780" width="185" height="60" as="geometry" />
        </mxCell>
        <mxCell id="Tlv0mU6QZfII-HZCm7lc-158" style="edgeStyle=orthogonalEdgeStyle;rounded=0;orthogonalLoop=1;jettySize=auto;html=1;exitX=0.5;exitY=1;exitDx=0;exitDy=0;entryX=0.441;entryY=-0.038;entryDx=0;entryDy=0;entryPerimeter=0;" edge="1" parent="1" source="Tlv0mU6QZfII-HZCm7lc-153" target="Tlv0mU6QZfII-HZCm7lc-157">
          <mxGeometry relative="1" as="geometry" />
        </mxCell>
        <mxCell id="Tlv0mU6QZfII-HZCm7lc-162" style="edgeStyle=orthogonalEdgeStyle;rounded=0;orthogonalLoop=1;jettySize=auto;html=1;exitX=1;exitY=0.5;exitDx=0;exitDy=0;entryX=0;entryY=0.5;entryDx=0;entryDy=0;" edge="1" parent="1" source="Tlv0mU6QZfII-HZCm7lc-159" target="Tlv0mU6QZfII-HZCm7lc-161">
          <mxGeometry relative="1" as="geometry" />
        </mxCell>
        <mxCell id="Tlv0mU6QZfII-HZCm7lc-159" value="Вносят изменения и отправляют проект" style="rounded=0;whiteSpace=wrap;html=1;" vertex="1" parent="1">
          <mxGeometry x="99.5" y="3880" width="120" height="60" as="geometry" />
        </mxCell>
        <mxCell id="Tlv0mU6QZfII-HZCm7lc-164" style="edgeStyle=orthogonalEdgeStyle;rounded=0;orthogonalLoop=1;jettySize=auto;html=1;exitX=0.5;exitY=1;exitDx=0;exitDy=0;entryX=0.5;entryY=0;entryDx=0;entryDy=0;" edge="1" parent="1" source="Tlv0mU6QZfII-HZCm7lc-161" target="Tlv0mU6QZfII-HZCm7lc-163">
          <mxGeometry relative="1" as="geometry" />
        </mxCell>
        <mxCell id="Tlv0mU6QZfII-HZCm7lc-161" value="&lt;span style=&quot;font-size:12.0pt;line-height:107%;&lt;br/&gt;font-family:&amp;quot;Times New Roman&amp;quot;,serif;mso-fareast-font-family:Calibri;mso-fareast-theme-font:&lt;br/&gt;minor-latin;mso-ansi-language:RU;mso-fareast-language:EN-US;mso-bidi-language:&lt;br/&gt;AR-SA&quot;&gt;Итоговый рекламный концепт представляется клиенту на утверждение.&lt;/span&gt;" style="rounded=0;whiteSpace=wrap;html=1;" vertex="1" parent="1">
          <mxGeometry x="300" y="3820" width="210" height="140" as="geometry" />
        </mxCell>
        <mxCell id="Tlv0mU6QZfII-HZCm7lc-170" style="edgeStyle=orthogonalEdgeStyle;rounded=0;orthogonalLoop=1;jettySize=auto;html=1;exitX=0;exitY=0.5;exitDx=0;exitDy=0;entryX=1;entryY=0.5;entryDx=0;entryDy=0;" edge="1" parent="1" source="Tlv0mU6QZfII-HZCm7lc-163" target="Tlv0mU6QZfII-HZCm7lc-166">
          <mxGeometry relative="1" as="geometry">
            <Array as="points">
              <mxPoint x="320" y="4045" />
              <mxPoint x="320" y="4180" />
            </Array>
          </mxGeometry>
        </mxCell>
        <mxCell id="Tlv0mU6QZfII-HZCm7lc-163" value="" style="rhombus;whiteSpace=wrap;html=1;" vertex="1" parent="1">
          <mxGeometry x="360" y="4020" width="80" height="50" as="geometry" />
        </mxCell>
        <mxCell id="Tlv0mU6QZfII-HZCm7lc-165" value="&lt;span style=&quot;font-size:12.0pt;line-height:107%;&lt;br/&gt;font-family:&amp;quot;Times New Roman&amp;quot;,serif;mso-fareast-font-family:Calibri;mso-fareast-theme-font:&lt;br/&gt;minor-latin;color:red;mso-ansi-language:RU;mso-fareast-language:EN-US;&lt;br/&gt;mso-bidi-language:AR-SA&quot;&gt;Клиент утверждает предложенный концепт.&lt;/span&gt;" style="text;html=1;align=center;verticalAlign=middle;whiteSpace=wrap;rounded=0;" vertex="1" parent="1">
          <mxGeometry x="309" y="4080" width="210" height="30" as="geometry" />
        </mxCell>
        <mxCell id="Tlv0mU6QZfII-HZCm7lc-172" style="edgeStyle=orthogonalEdgeStyle;rounded=0;orthogonalLoop=1;jettySize=auto;html=1;exitX=0.5;exitY=1;exitDx=0;exitDy=0;entryX=0.5;entryY=0;entryDx=0;entryDy=0;" edge="1" parent="1" source="Tlv0mU6QZfII-HZCm7lc-166" target="Tlv0mU6QZfII-HZCm7lc-167">
          <mxGeometry relative="1" as="geometry" />
        </mxCell>
        <mxCell id="Tlv0mU6QZfII-HZCm7lc-166" value="прецедент завершается" style="rounded=0;whiteSpace=wrap;html=1;" vertex="1" parent="1">
          <mxGeometry x="335" y="4150" width="120" height="60" as="geometry" />
        </mxCell>
        <mxCell id="Tlv0mU6QZfII-HZCm7lc-167" value="" style="ellipse;whiteSpace=wrap;html=1;aspect=fixed;" vertex="1" parent="1">
          <mxGeometry x="374" y="4240" width="40" height="40" as="geometry" />
        </mxCell>
        <mxCell id="Tlv0mU6QZfII-HZCm7lc-168" value="" style="ellipse;whiteSpace=wrap;html=1;aspect=fixed;" vertex="1" parent="1">
          <mxGeometry x="379" y="4245" width="30" height="30" as="geometry" />
        </mxCell>
        <mxCell id="Tlv0mU6QZfII-HZCm7lc-171" value="да" style="text;html=1;align=center;verticalAlign=middle;whiteSpace=wrap;rounded=0;" vertex="1" parent="1">
          <mxGeometry x="314" y="4010" width="60" height="30" as="geometry" />
        </mxCell>
        <mxCell id="Tlv0mU6QZfII-HZCm7lc-177" style="edgeStyle=orthogonalEdgeStyle;rounded=0;orthogonalLoop=1;jettySize=auto;html=1;exitX=0.5;exitY=1;exitDx=0;exitDy=0;entryX=0.5;entryY=1;entryDx=0;entryDy=0;" edge="1" parent="1" source="Tlv0mU6QZfII-HZCm7lc-173" target="Tlv0mU6QZfII-HZCm7lc-176">
          <mxGeometry relative="1" as="geometry">
            <Array as="points">
              <mxPoint x="670" y="4330" />
              <mxPoint x="142" y="4330" />
            </Array>
          </mxGeometry>
        </mxCell>
        <mxCell id="Tlv0mU6QZfII-HZCm7lc-173" value="менеджер собирает команду для разработки идей" style="rounded=0;whiteSpace=wrap;html=1;" vertex="1" parent="1">
          <mxGeometry x="610" y="4050" width="120" height="60" as="geometry" />
        </mxCell>
        <mxCell id="Tlv0mU6QZfII-HZCm7lc-175" style="edgeStyle=orthogonalEdgeStyle;rounded=0;orthogonalLoop=1;jettySize=auto;html=1;exitX=1;exitY=0.5;exitDx=0;exitDy=0;entryX=0.5;entryY=0;entryDx=0;entryDy=0;" edge="1" parent="1" source="Tlv0mU6QZfII-HZCm7lc-163" target="Tlv0mU6QZfII-HZCm7lc-173">
          <mxGeometry relative="1" as="geometry" />
        </mxCell>
        <mxCell id="Tlv0mU6QZfII-HZCm7lc-174" value="нет" style="text;html=1;align=center;verticalAlign=middle;whiteSpace=wrap;rounded=0;" vertex="1" parent="1">
          <mxGeometry x="435" y="4010" width="60" height="30" as="geometry" />
        </mxCell>
        <mxCell id="Tlv0mU6QZfII-HZCm7lc-178" style="edgeStyle=orthogonalEdgeStyle;rounded=0;orthogonalLoop=1;jettySize=auto;html=1;exitX=0;exitY=0.5;exitDx=0;exitDy=0;entryX=0.5;entryY=0;entryDx=0;entryDy=0;" edge="1" parent="1" source="Tlv0mU6QZfII-HZCm7lc-176" target="Tlv0mU6QZfII-HZCm7lc-161">
          <mxGeometry relative="1" as="geometry">
            <Array as="points">
              <mxPoint x="30" y="4200" />
              <mxPoint x="30" y="3760" />
              <mxPoint x="405" y="3760" />
            </Array>
          </mxGeometry>
        </mxCell>
        <mxCell id="Tlv0mU6QZfII-HZCm7lc-176" value="команда предоставляет новый концепт" style="rounded=0;whiteSpace=wrap;html=1;" vertex="1" parent="1">
          <mxGeometry x="81.5" y="4170" width="120" height="60" as="geometry" />
        </mxCell>
        <mxCell id="Tlv0mU6QZfII-HZCm7lc-179" value="" style="endArrow=none;html=1;rounded=0;" edge="1" parent="1">
          <mxGeometry width="50" height="50" relative="1" as="geometry">
            <mxPoint y="4410" as="sourcePoint" />
            <mxPoint x="810" y="4410" as="targetPoint" />
          </mxGeometry>
        </mxCell>
        <mxCell id="Tlv0mU6QZfII-HZCm7lc-182" value="&lt;span style=&quot;font-size:12.0pt;line-height:107%;&lt;br/&gt;font-family:&amp;quot;Times New Roman&amp;quot;,serif;mso-fareast-font-family:Calibri;mso-fareast-theme-font:&lt;br/&gt;minor-latin;mso-ansi-language:RU;mso-fareast-language:EN-US;mso-bidi-language:&lt;br/&gt;AR-SA&quot;&gt;Разработка рекламных материалов&lt;/span&gt;" style="text;html=1;align=center;verticalAlign=middle;whiteSpace=wrap;rounded=0;" vertex="1" parent="1">
          <mxGeometry x="20" y="4430" width="300" height="30" as="geometry" />
        </mxCell>
        <mxCell id="Tlv0mU6QZfII-HZCm7lc-183" value="специалисты" style="text;html=1;align=center;verticalAlign=middle;whiteSpace=wrap;rounded=0;" vertex="1" parent="1">
          <mxGeometry x="81.5" y="4470" width="60" height="30" as="geometry" />
        </mxCell>
        <mxCell id="Tlv0mU6QZfII-HZCm7lc-184" value="система" style="text;html=1;align=center;verticalAlign=middle;whiteSpace=wrap;rounded=0;" vertex="1" parent="1">
          <mxGeometry x="648.13" y="4505" width="60" height="30" as="geometry" />
        </mxCell>
        <mxCell id="Tlv0mU6QZfII-HZCm7lc-185" value="" style="endArrow=none;html=1;rounded=0;" edge="1" parent="1">
          <mxGeometry width="50" height="50" relative="1" as="geometry">
            <mxPoint x="400" y="5470" as="sourcePoint" />
            <mxPoint x="400" y="4440" as="targetPoint" />
          </mxGeometry>
        </mxCell>
        <mxCell id="Tlv0mU6QZfII-HZCm7lc-191" style="edgeStyle=orthogonalEdgeStyle;rounded=0;orthogonalLoop=1;jettySize=auto;html=1;exitX=0.5;exitY=1;exitDx=0;exitDy=0;entryX=0.5;entryY=0;entryDx=0;entryDy=0;" edge="1" parent="1" source="Tlv0mU6QZfII-HZCm7lc-187" target="Tlv0mU6QZfII-HZCm7lc-188">
          <mxGeometry relative="1" as="geometry" />
        </mxCell>
        <mxCell id="Tlv0mU6QZfII-HZCm7lc-187" value="" style="ellipse;whiteSpace=wrap;html=1;aspect=fixed;" vertex="1" parent="1">
          <mxGeometry x="168.5" y="4500" width="40" height="40" as="geometry" />
        </mxCell>
        <mxCell id="Tlv0mU6QZfII-HZCm7lc-188" value="&lt;span style=&quot;font-size:12.0pt;line-height:107%;&lt;br/&gt;font-family:&amp;quot;Times New Roman&amp;quot;,serif;mso-fareast-font-family:Calibri;mso-fareast-theme-font:&lt;br/&gt;minor-latin;mso-ansi-language:RU;mso-fareast-language:EN-US;mso-bidi-language:&lt;br/&gt;AR-SA&quot;&gt;каждый специалист разрабатывает часть материалов в соответствии со&lt;br&gt;своей специализацией&lt;/span&gt;" style="rounded=0;whiteSpace=wrap;html=1;" vertex="1" parent="1">
          <mxGeometry x="67" y="4580" width="245" height="130" as="geometry" />
        </mxCell>
        <mxCell id="Tlv0mU6QZfII-HZCm7lc-193" style="edgeStyle=orthogonalEdgeStyle;rounded=0;orthogonalLoop=1;jettySize=auto;html=1;exitX=0.5;exitY=1;exitDx=0;exitDy=0;entryX=0;entryY=0.5;entryDx=0;entryDy=0;" edge="1" parent="1" source="Tlv0mU6QZfII-HZCm7lc-189" target="Tlv0mU6QZfII-HZCm7lc-192">
          <mxGeometry relative="1" as="geometry" />
        </mxCell>
        <mxCell id="Tlv0mU6QZfII-HZCm7lc-189" value="&lt;span style=&quot;font-size:12.0pt;line-height:107%;&lt;br/&gt;font-family:&amp;quot;Times New Roman&amp;quot;,serif;mso-fareast-font-family:Calibri;mso-fareast-theme-font:&lt;br/&gt;minor-latin;mso-ansi-language:RU;mso-fareast-language:EN-US;mso-bidi-language:&lt;br/&gt;AR-SA&quot;&gt;Материалы собираются для создания единого рекламного сообщения.&lt;/span&gt;" style="rounded=0;whiteSpace=wrap;html=1;" vertex="1" parent="1">
          <mxGeometry x="62.5" y="4770" width="257.5" height="80" as="geometry" />
        </mxCell>
        <mxCell id="Tlv0mU6QZfII-HZCm7lc-190" style="edgeStyle=orthogonalEdgeStyle;rounded=0;orthogonalLoop=1;jettySize=auto;html=1;exitX=0.5;exitY=1;exitDx=0;exitDy=0;entryX=0.456;entryY=0;entryDx=0;entryDy=0;entryPerimeter=0;" edge="1" parent="1" source="Tlv0mU6QZfII-HZCm7lc-188" target="Tlv0mU6QZfII-HZCm7lc-189">
          <mxGeometry relative="1" as="geometry" />
        </mxCell>
        <mxCell id="Tlv0mU6QZfII-HZCm7lc-195" style="edgeStyle=orthogonalEdgeStyle;rounded=0;orthogonalLoop=1;jettySize=auto;html=1;exitX=0.5;exitY=1;exitDx=0;exitDy=0;entryX=0.5;entryY=0;entryDx=0;entryDy=0;" edge="1" parent="1" source="Tlv0mU6QZfII-HZCm7lc-192" target="Tlv0mU6QZfII-HZCm7lc-194">
          <mxGeometry relative="1" as="geometry" />
        </mxCell>
        <mxCell id="Tlv0mU6QZfII-HZCm7lc-192" value="&lt;span style=&quot;font-size:12.0pt;line-height:107%;&lt;br/&gt;font-family:&amp;quot;Times New Roman&amp;quot;,serif;mso-fareast-font-family:Calibri;mso-fareast-theme-font:&lt;br/&gt;minor-latin;mso-ansi-language:RU;mso-fareast-language:EN-US;mso-bidi-language:&lt;br/&gt;AR-SA&quot;&gt;Проводится внутренняя проверка и корректировка материалов.&lt;/span&gt;" style="rounded=0;whiteSpace=wrap;html=1;" vertex="1" parent="1">
          <mxGeometry x="531.25" y="4780" width="180" height="110" as="geometry" />
        </mxCell>
        <mxCell id="Tlv0mU6QZfII-HZCm7lc-200" style="edgeStyle=orthogonalEdgeStyle;rounded=0;orthogonalLoop=1;jettySize=auto;html=1;exitX=0.5;exitY=1;exitDx=0;exitDy=0;" edge="1" parent="1" source="Tlv0mU6QZfII-HZCm7lc-194" target="Tlv0mU6QZfII-HZCm7lc-199">
          <mxGeometry relative="1" as="geometry" />
        </mxCell>
        <mxCell id="Tlv0mU6QZfII-HZCm7lc-194" value="&lt;span style=&quot;font-size:12.0pt;line-height:107%;&lt;br/&gt;font-family:&amp;quot;Times New Roman&amp;quot;,serif;mso-fareast-font-family:Calibri;mso-fareast-theme-font:&lt;br/&gt;minor-latin;mso-ansi-language:RU;mso-fareast-language:EN-US;mso-bidi-language:&lt;br/&gt;AR-SA&quot;&gt;Материалы представляются менеджеру проектов для оценки.&lt;/span&gt;" style="rounded=0;whiteSpace=wrap;html=1;" vertex="1" parent="1">
          <mxGeometry x="513.76" y="4960" width="215" height="120" as="geometry" />
        </mxCell>
        <mxCell id="Tlv0mU6QZfII-HZCm7lc-196" value="" style="endArrow=none;html=1;rounded=0;" edge="1" parent="1">
          <mxGeometry width="50" height="50" relative="1" as="geometry">
            <mxPoint x="820" y="5450" as="sourcePoint" />
            <mxPoint x="819" y="4480" as="targetPoint" />
          </mxGeometry>
        </mxCell>
        <mxCell id="Tlv0mU6QZfII-HZCm7lc-198" value="Менеджер" style="text;html=1;align=center;verticalAlign=middle;whiteSpace=wrap;rounded=0;" vertex="1" parent="1">
          <mxGeometry x="940" y="4500" width="60" height="30" as="geometry" />
        </mxCell>
        <mxCell id="Tlv0mU6QZfII-HZCm7lc-202" style="edgeStyle=orthogonalEdgeStyle;rounded=0;orthogonalLoop=1;jettySize=auto;html=1;exitX=0.5;exitY=1;exitDx=0;exitDy=0;entryX=0.5;entryY=0;entryDx=0;entryDy=0;" edge="1" parent="1" source="Tlv0mU6QZfII-HZCm7lc-199" target="Tlv0mU6QZfII-HZCm7lc-201">
          <mxGeometry relative="1" as="geometry" />
        </mxCell>
        <mxCell id="Tlv0mU6QZfII-HZCm7lc-199" value="&lt;span style=&quot;font-size:12.0pt;line-height:107%;&lt;br/&gt;font-family:&amp;quot;Times New Roman&amp;quot;,serif;mso-fareast-font-family:Calibri;mso-fareast-theme-font:&lt;br/&gt;minor-latin;mso-ansi-language:RU;mso-fareast-language:EN-US;mso-bidi-language:&lt;br/&gt;AR-SA&quot;&gt;Менеджер предоставляет материалы клиенту для утверждения.&lt;/span&gt;" style="rounded=0;whiteSpace=wrap;html=1;" vertex="1" parent="1">
          <mxGeometry x="890" y="5010" width="230" height="130" as="geometry" />
        </mxCell>
        <mxCell id="Tlv0mU6QZfII-HZCm7lc-203" style="edgeStyle=orthogonalEdgeStyle;rounded=0;orthogonalLoop=1;jettySize=auto;html=1;exitX=1;exitY=0.5;exitDx=0;exitDy=0;" edge="1" parent="1" source="Tlv0mU6QZfII-HZCm7lc-201" target="Tlv0mU6QZfII-HZCm7lc-204">
          <mxGeometry relative="1" as="geometry">
            <mxPoint x="680" y="5440" as="targetPoint" />
          </mxGeometry>
        </mxCell>
        <mxCell id="Tlv0mU6QZfII-HZCm7lc-211" style="edgeStyle=orthogonalEdgeStyle;rounded=0;orthogonalLoop=1;jettySize=auto;html=1;exitX=0;exitY=0.5;exitDx=0;exitDy=0;entryX=1;entryY=0.5;entryDx=0;entryDy=0;" edge="1" parent="1" source="Tlv0mU6QZfII-HZCm7lc-201" target="Tlv0mU6QZfII-HZCm7lc-209">
          <mxGeometry relative="1" as="geometry" />
        </mxCell>
        <mxCell id="Tlv0mU6QZfII-HZCm7lc-201" value="&lt;span style=&quot;font-size:12.0pt;line-height:107%;&lt;br/&gt;font-family:&amp;quot;Times New Roman&amp;quot;,serif;mso-fareast-font-family:Calibri;mso-fareast-theme-font:&lt;br/&gt;minor-latin;color:red;mso-ansi-language:RU;mso-fareast-language:EN-US;&lt;br/&gt;mso-bidi-language:AR-SA&quot;&gt;Требуются изменения по замечаниям клиента&lt;/span&gt;" style="rhombus;whiteSpace=wrap;html=1;" vertex="1" parent="1">
          <mxGeometry x="440" y="5180" width="310" height="80" as="geometry" />
        </mxCell>
        <mxCell id="Tlv0mU6QZfII-HZCm7lc-204" value="" style="ellipse;whiteSpace=wrap;html=1;aspect=fixed;" vertex="1" parent="1">
          <mxGeometry x="630" y="5415" width="65" height="65" as="geometry" />
        </mxCell>
        <mxCell id="Tlv0mU6QZfII-HZCm7lc-205" value="" style="ellipse;whiteSpace=wrap;html=1;aspect=fixed;" vertex="1" parent="1">
          <mxGeometry x="642.5" y="5427.5" width="40" height="40" as="geometry" />
        </mxCell>
        <mxCell id="Tlv0mU6QZfII-HZCm7lc-208" value="нет" style="text;html=1;align=center;verticalAlign=middle;whiteSpace=wrap;rounded=0;" vertex="1" parent="1">
          <mxGeometry x="722.5" y="5180" width="60" height="30" as="geometry" />
        </mxCell>
        <mxCell id="Tlv0mU6QZfII-HZCm7lc-212" style="edgeStyle=orthogonalEdgeStyle;rounded=0;orthogonalLoop=1;jettySize=auto;html=1;exitX=0.5;exitY=0;exitDx=0;exitDy=0;entryX=0;entryY=0.75;entryDx=0;entryDy=0;" edge="1" parent="1" source="Tlv0mU6QZfII-HZCm7lc-209" target="Tlv0mU6QZfII-HZCm7lc-192">
          <mxGeometry relative="1" as="geometry">
            <Array as="points">
              <mxPoint x="120" y="4930" />
              <mxPoint x="490" y="4930" />
              <mxPoint x="490" y="4863" />
            </Array>
          </mxGeometry>
        </mxCell>
        <mxCell id="Tlv0mU6QZfII-HZCm7lc-209" value="команда вносит изменения" style="rounded=0;whiteSpace=wrap;html=1;" vertex="1" parent="1">
          <mxGeometry x="59.5" y="5200" width="120" height="60" as="geometry" />
        </mxCell>
        <mxCell id="Tlv0mU6QZfII-HZCm7lc-210" value="да" style="text;html=1;align=center;verticalAlign=middle;whiteSpace=wrap;rounded=0;" vertex="1" parent="1">
          <mxGeometry x="490" y="5160" width="60" height="30" as="geometry" />
        </mxCell>
        <mxCell id="Tlv0mU6QZfII-HZCm7lc-214" value="" style="endArrow=none;html=1;rounded=0;" edge="1" parent="1">
          <mxGeometry width="50" height="50" relative="1" as="geometry">
            <mxPoint x="15" y="5590" as="sourcePoint" />
            <mxPoint x="825" y="5590" as="targetPoint" />
          </mxGeometry>
        </mxCell>
        <mxCell id="Tlv0mU6QZfII-HZCm7lc-215" value="&lt;span style=&quot;font-size:12.0pt;line-height:107%;&lt;br/&gt;font-family:&amp;quot;Times New Roman&amp;quot;,serif;mso-fareast-font-family:Calibri;mso-fareast-theme-font:&lt;br/&gt;minor-latin;mso-ansi-language:RU;mso-fareast-language:EN-US;mso-bidi-language:&lt;br/&gt;AR-SA&quot;&gt;Размещение рекламных материалов&lt;/span&gt;" style="text;html=1;align=center;verticalAlign=middle;whiteSpace=wrap;rounded=0;" vertex="1" parent="1">
          <mxGeometry x="55" y="5630" width="325" height="30" as="geometry" />
        </mxCell>
        <mxCell id="Tlv0mU6QZfII-HZCm7lc-216" value="спициалисты" style="text;html=1;align=center;verticalAlign=middle;whiteSpace=wrap;rounded=0;" vertex="1" parent="1">
          <mxGeometry x="135" y="5670" width="60" height="30" as="geometry" />
        </mxCell>
        <mxCell id="Tlv0mU6QZfII-HZCm7lc-217" value="Система" style="text;html=1;align=center;verticalAlign=middle;whiteSpace=wrap;rounded=0;" vertex="1" parent="1">
          <mxGeometry x="601.26" y="5670" width="60" height="30" as="geometry" />
        </mxCell>
        <mxCell id="Tlv0mU6QZfII-HZCm7lc-218" value="" style="endArrow=none;html=1;rounded=0;" edge="1" parent="1">
          <mxGeometry width="50" height="50" relative="1" as="geometry">
            <mxPoint x="440" y="6550" as="sourcePoint" />
            <mxPoint x="440" y="5590" as="targetPoint" />
          </mxGeometry>
        </mxCell>
        <mxCell id="Tlv0mU6QZfII-HZCm7lc-221" style="edgeStyle=orthogonalEdgeStyle;rounded=0;orthogonalLoop=1;jettySize=auto;html=1;exitX=0.5;exitY=1;exitDx=0;exitDy=0;" edge="1" parent="1" source="Tlv0mU6QZfII-HZCm7lc-219" target="Tlv0mU6QZfII-HZCm7lc-220">
          <mxGeometry relative="1" as="geometry" />
        </mxCell>
        <mxCell id="Tlv0mU6QZfII-HZCm7lc-219" value="" style="ellipse;whiteSpace=wrap;html=1;aspect=fixed;" vertex="1" parent="1">
          <mxGeometry x="201.5" y="5700" width="40" height="40" as="geometry" />
        </mxCell>
        <mxCell id="Tlv0mU6QZfII-HZCm7lc-220" value="&lt;span style=&quot;font-size:12.0pt;line-height:107%;&lt;br/&gt;font-family:&amp;quot;Times New Roman&amp;quot;,serif;mso-fareast-font-family:Calibri;mso-fareast-theme-font:&lt;br/&gt;minor-latin;mso-ansi-language:RU;mso-fareast-language:EN-US;mso-bidi-language:&lt;br/&gt;AR-SA&quot;&gt;Специалисты определяют оптимальные каналы распространения в соответствии&lt;br/&gt;с рекламным планом&lt;/span&gt;" style="rounded=0;whiteSpace=wrap;html=1;" vertex="1" parent="1">
          <mxGeometry x="67.25" y="5800" width="255.5" height="100" as="geometry" />
        </mxCell>
        <mxCell id="Tlv0mU6QZfII-HZCm7lc-222" value="&lt;span style=&quot;font-size:12.0pt;line-height:107%;&lt;br/&gt;font-family:&amp;quot;Times New Roman&amp;quot;,serif;mso-fareast-font-family:Calibri;mso-fareast-theme-font:&lt;br/&gt;minor-latin;mso-ansi-language:RU;mso-fareast-language:EN-US;mso-bidi-language:&lt;br/&gt;AR-SA&quot;&gt;Готовятся материалы и контент для каждого канала.&lt;/span&gt;" style="rounded=0;whiteSpace=wrap;html=1;" vertex="1" parent="1">
          <mxGeometry x="76.5" y="5970" width="235.5" height="70" as="geometry" />
        </mxCell>
        <mxCell id="Tlv0mU6QZfII-HZCm7lc-223" style="edgeStyle=orthogonalEdgeStyle;rounded=0;orthogonalLoop=1;jettySize=auto;html=1;exitX=0.5;exitY=1;exitDx=0;exitDy=0;entryX=0.563;entryY=-0.006;entryDx=0;entryDy=0;entryPerimeter=0;" edge="1" parent="1" source="Tlv0mU6QZfII-HZCm7lc-220" target="Tlv0mU6QZfII-HZCm7lc-222">
          <mxGeometry relative="1" as="geometry" />
        </mxCell>
        <mxCell id="Tlv0mU6QZfII-HZCm7lc-227" style="edgeStyle=orthogonalEdgeStyle;rounded=0;orthogonalLoop=1;jettySize=auto;html=1;exitX=0.5;exitY=1;exitDx=0;exitDy=0;entryX=0.5;entryY=0;entryDx=0;entryDy=0;" edge="1" parent="1" source="Tlv0mU6QZfII-HZCm7lc-224" target="Tlv0mU6QZfII-HZCm7lc-226">
          <mxGeometry relative="1" as="geometry" />
        </mxCell>
        <mxCell id="Tlv0mU6QZfII-HZCm7lc-224" value="&lt;span style=&quot;font-size:12.0pt;line-height:107%;&lt;br/&gt;font-family:&amp;quot;Times New Roman&amp;quot;,serif;mso-fareast-font-family:Calibri;mso-fareast-theme-font:&lt;br/&gt;minor-latin;mso-ansi-language:RU;mso-fareast-language:EN-US;mso-bidi-language:&lt;br/&gt;AR-SA&quot;&gt;Размещаются рекламные материалы в выбранных каналах.&lt;/span&gt;" style="rounded=0;whiteSpace=wrap;html=1;" vertex="1" parent="1">
          <mxGeometry x="545" y="5990" width="217.5" height="90" as="geometry" />
        </mxCell>
        <mxCell id="Tlv0mU6QZfII-HZCm7lc-225" style="edgeStyle=orthogonalEdgeStyle;rounded=0;orthogonalLoop=1;jettySize=auto;html=1;exitX=0.5;exitY=1;exitDx=0;exitDy=0;entryX=0.012;entryY=0.635;entryDx=0;entryDy=0;entryPerimeter=0;" edge="1" parent="1" source="Tlv0mU6QZfII-HZCm7lc-222" target="Tlv0mU6QZfII-HZCm7lc-224">
          <mxGeometry relative="1" as="geometry">
            <Array as="points">
              <mxPoint x="194" y="6110" />
              <mxPoint x="429" y="6110" />
              <mxPoint x="429" y="6047" />
            </Array>
          </mxGeometry>
        </mxCell>
        <mxCell id="Tlv0mU6QZfII-HZCm7lc-231" style="edgeStyle=orthogonalEdgeStyle;rounded=0;orthogonalLoop=1;jettySize=auto;html=1;exitX=1;exitY=0.5;exitDx=0;exitDy=0;" edge="1" parent="1" source="Tlv0mU6QZfII-HZCm7lc-226">
          <mxGeometry relative="1" as="geometry">
            <mxPoint x="775" y="6135" as="sourcePoint" />
            <mxPoint x="675" y="6280" as="targetPoint" />
            <Array as="points">
              <mxPoint x="810" y="6135" />
              <mxPoint x="810" y="6250" />
              <mxPoint x="675" y="6250" />
            </Array>
          </mxGeometry>
        </mxCell>
        <mxCell id="Tlv0mU6QZfII-HZCm7lc-234" style="edgeStyle=orthogonalEdgeStyle;rounded=0;orthogonalLoop=1;jettySize=auto;html=1;exitX=0;exitY=0.5;exitDx=0;exitDy=0;entryX=1;entryY=0.5;entryDx=0;entryDy=0;" edge="1" parent="1" source="Tlv0mU6QZfII-HZCm7lc-226" target="Tlv0mU6QZfII-HZCm7lc-233">
          <mxGeometry relative="1" as="geometry" />
        </mxCell>
        <mxCell id="Tlv0mU6QZfII-HZCm7lc-226" value="" style="rhombus;whiteSpace=wrap;html=1;" vertex="1" parent="1">
          <mxGeometry x="675" y="6110" width="80" height="50" as="geometry" />
        </mxCell>
        <mxCell id="Tlv0mU6QZfII-HZCm7lc-228" value="&lt;span style=&quot;line-height: 107%; color: red;&quot;&gt;&lt;font style=&quot;font-size: 12px;&quot;&gt;Проблемы с размещением в конкретных каналах.&lt;/font&gt;&lt;/span&gt;" style="text;html=1;align=center;verticalAlign=middle;whiteSpace=wrap;rounded=0;" vertex="1" parent="1">
          <mxGeometry x="650" y="6170" width="140" height="30" as="geometry" />
        </mxCell>
        <mxCell id="Tlv0mU6QZfII-HZCm7lc-238" style="edgeStyle=orthogonalEdgeStyle;rounded=0;orthogonalLoop=1;jettySize=auto;html=1;exitX=0.5;exitY=1;exitDx=0;exitDy=0;entryX=0.5;entryY=0;entryDx=0;entryDy=0;" edge="1" parent="1" source="Tlv0mU6QZfII-HZCm7lc-230" target="Tlv0mU6QZfII-HZCm7lc-236">
          <mxGeometry relative="1" as="geometry">
            <Array as="points">
              <mxPoint x="661" y="6387" />
              <mxPoint x="661" y="6409" />
            </Array>
          </mxGeometry>
        </mxCell>
        <mxCell id="Tlv0mU6QZfII-HZCm7lc-230" value="&lt;span style=&quot;font-size:12.0pt;line-height:107%;&lt;br/&gt;font-family:&amp;quot;Times New Roman&amp;quot;,serif;mso-fareast-font-family:Calibri;mso-fareast-theme-font:&lt;br/&gt;minor-latin;mso-ansi-language:RU;mso-fareast-language:EN-US;mso-bidi-language:&lt;br/&gt;AR-SA&quot;&gt;Осуществляется мониторинг и контроль за размещением и показом рекламы.&lt;/span&gt;" style="rounded=0;whiteSpace=wrap;html=1;" vertex="1" parent="1">
          <mxGeometry x="545" y="6280" width="220" height="107" as="geometry" />
        </mxCell>
        <mxCell id="Tlv0mU6QZfII-HZCm7lc-232" value="нет" style="text;html=1;align=center;verticalAlign=middle;whiteSpace=wrap;rounded=0;" vertex="1" parent="1">
          <mxGeometry x="755" y="6110" width="50" height="20" as="geometry" />
        </mxCell>
        <mxCell id="Tlv0mU6QZfII-HZCm7lc-235" style="edgeStyle=orthogonalEdgeStyle;rounded=0;orthogonalLoop=1;jettySize=auto;html=1;exitX=0.5;exitY=0;exitDx=0;exitDy=0;entryX=0;entryY=0.75;entryDx=0;entryDy=0;" edge="1" parent="1" source="Tlv0mU6QZfII-HZCm7lc-233" target="Tlv0mU6QZfII-HZCm7lc-224">
          <mxGeometry relative="1" as="geometry">
            <Array as="points">
              <mxPoint x="525" y="6150" />
              <mxPoint x="525" y="6057" />
            </Array>
          </mxGeometry>
        </mxCell>
        <mxCell id="Tlv0mU6QZfII-HZCm7lc-233" value="&lt;span style=&quot;line-height: 107%;&quot;&gt;&lt;font style=&quot;font-size: 13px;&quot;&gt;Ищутся альтернативные каналы или решения для устранения проблем.&lt;/font&gt;&lt;/span&gt;" style="rounded=0;whiteSpace=wrap;html=1;" vertex="1" parent="1">
          <mxGeometry x="480" y="6150" width="143" height="77" as="geometry" />
        </mxCell>
        <mxCell id="Tlv0mU6QZfII-HZCm7lc-236" value="" style="ellipse;whiteSpace=wrap;html=1;aspect=fixed;" vertex="1" parent="1">
          <mxGeometry x="635" y="6430" width="51.26" height="51.26" as="geometry" />
        </mxCell>
        <mxCell id="Tlv0mU6QZfII-HZCm7lc-237" value="" style="ellipse;whiteSpace=wrap;html=1;aspect=fixed;" vertex="1" parent="1">
          <mxGeometry x="640.63" y="6435.63" width="40" height="40" as="geometry" />
        </mxCell>
        <mxCell id="Tlv0mU6QZfII-HZCm7lc-239" value="" style="endArrow=none;html=1;rounded=0;" edge="1" parent="1">
          <mxGeometry width="50" height="50" relative="1" as="geometry">
            <mxPoint x="9" y="6540" as="sourcePoint" />
            <mxPoint x="819" y="6540" as="targetPoint" />
          </mxGeometry>
        </mxCell>
        <mxCell id="Tlv0mU6QZfII-HZCm7lc-240" value="&lt;span style=&quot;font-size:12.0pt;line-height:107%;&lt;br/&gt;font-family:&amp;quot;Times New Roman&amp;quot;,serif;mso-fareast-font-family:Calibri;mso-fareast-theme-font:&lt;br/&gt;minor-latin;mso-ansi-language:RU;mso-fareast-language:EN-US;mso-bidi-language:&lt;br/&gt;AR-SA&quot;&gt;Анализ эффективности рекламной кампании&lt;/span&gt;" style="text;html=1;align=center;verticalAlign=middle;whiteSpace=wrap;rounded=0;" vertex="1" parent="1">
          <mxGeometry x="30" y="6570" width="360" height="30" as="geometry" />
        </mxCell>
        <mxCell id="Tlv0mU6QZfII-HZCm7lc-241" value="система" style="text;html=1;align=center;verticalAlign=middle;whiteSpace=wrap;rounded=0;" vertex="1" parent="1">
          <mxGeometry x="560" y="6640" width="60" height="30" as="geometry" />
        </mxCell>
        <mxCell id="Tlv0mU6QZfII-HZCm7lc-242" value="специалист" style="text;html=1;align=center;verticalAlign=middle;whiteSpace=wrap;rounded=0;" vertex="1" parent="1">
          <mxGeometry x="95" y="6640" width="60" height="30" as="geometry" />
        </mxCell>
        <mxCell id="Tlv0mU6QZfII-HZCm7lc-243" value="" style="endArrow=none;html=1;rounded=0;" edge="1" parent="1">
          <mxGeometry width="50" height="50" relative="1" as="geometry">
            <mxPoint x="400" y="7390" as="sourcePoint" />
            <mxPoint x="400" y="6620" as="targetPoint" />
          </mxGeometry>
        </mxCell>
        <mxCell id="Tlv0mU6QZfII-HZCm7lc-247" style="edgeStyle=orthogonalEdgeStyle;rounded=0;orthogonalLoop=1;jettySize=auto;html=1;exitX=0.5;exitY=1;exitDx=0;exitDy=0;" edge="1" parent="1" source="Tlv0mU6QZfII-HZCm7lc-245" target="Tlv0mU6QZfII-HZCm7lc-246">
          <mxGeometry relative="1" as="geometry" />
        </mxCell>
        <mxCell id="Tlv0mU6QZfII-HZCm7lc-245" value="" style="ellipse;whiteSpace=wrap;html=1;aspect=fixed;" vertex="1" parent="1">
          <mxGeometry x="185" y="6650" width="50" height="50" as="geometry" />
        </mxCell>
        <mxCell id="Tlv0mU6QZfII-HZCm7lc-249" style="edgeStyle=orthogonalEdgeStyle;rounded=0;orthogonalLoop=1;jettySize=auto;html=1;exitX=0.5;exitY=1;exitDx=0;exitDy=0;entryX=0.5;entryY=0;entryDx=0;entryDy=0;" edge="1" parent="1" source="Tlv0mU6QZfII-HZCm7lc-246" target="Tlv0mU6QZfII-HZCm7lc-248">
          <mxGeometry relative="1" as="geometry" />
        </mxCell>
        <mxCell id="Tlv0mU6QZfII-HZCm7lc-246" value="&lt;span style=&quot;font-size:12.0pt;line-height:107%;&lt;br/&gt;font-family:&amp;quot;Times New Roman&amp;quot;,serif;mso-fareast-font-family:Calibri;mso-fareast-theme-font:&lt;br/&gt;minor-latin;mso-ansi-language:RU;mso-fareast-language:EN-US;mso-bidi-language:&lt;br/&gt;AR-SA&quot;&gt;Собираются данные о показателях кампании из различных источников.&lt;/span&gt;" style="rounded=0;whiteSpace=wrap;html=1;" vertex="1" parent="1">
          <mxGeometry x="111.25" y="6750" width="188.75" height="90" as="geometry" />
        </mxCell>
        <mxCell id="Tlv0mU6QZfII-HZCm7lc-251" style="edgeStyle=orthogonalEdgeStyle;rounded=0;orthogonalLoop=1;jettySize=auto;html=1;exitX=0.5;exitY=1;exitDx=0;exitDy=0;" edge="1" parent="1" source="Tlv0mU6QZfII-HZCm7lc-248" target="Tlv0mU6QZfII-HZCm7lc-250">
          <mxGeometry relative="1" as="geometry" />
        </mxCell>
        <mxCell id="Tlv0mU6QZfII-HZCm7lc-248" value="&lt;span style=&quot;font-size:12.0pt;line-height:107%;&lt;br/&gt;font-family:&amp;quot;Times New Roman&amp;quot;,serif;mso-fareast-font-family:Calibri;mso-fareast-theme-font:&lt;br/&gt;minor-latin;mso-ansi-language:RU;mso-fareast-language:EN-US;mso-bidi-language:&lt;br/&gt;AR-SA&quot;&gt;Анализируется достижение поставленных целей кампании.&lt;/span&gt;" style="rounded=0;whiteSpace=wrap;html=1;" vertex="1" parent="1">
          <mxGeometry x="145" y="6900" width="175" height="110" as="geometry" />
        </mxCell>
        <mxCell id="Tlv0mU6QZfII-HZCm7lc-253" style="edgeStyle=orthogonalEdgeStyle;rounded=0;orthogonalLoop=1;jettySize=auto;html=1;exitX=0.5;exitY=1;exitDx=0;exitDy=0;entryX=0.5;entryY=0;entryDx=0;entryDy=0;" edge="1" parent="1" source="Tlv0mU6QZfII-HZCm7lc-250" target="Tlv0mU6QZfII-HZCm7lc-252">
          <mxGeometry relative="1" as="geometry" />
        </mxCell>
        <mxCell id="Tlv0mU6QZfII-HZCm7lc-250" value="&lt;span style=&quot;font-size:12.0pt;line-height:107%;&lt;br/&gt;font-family:&amp;quot;Times New Roman&amp;quot;,serif;mso-fareast-font-family:Calibri;mso-fareast-theme-font:&lt;br/&gt;minor-latin;mso-ansi-language:RU;mso-fareast-language:EN-US;mso-bidi-language:&lt;br/&gt;AR-SA&quot;&gt;Оценивается ROI и другие ключевые показатели эффективности.&lt;/span&gt;" style="rounded=0;whiteSpace=wrap;html=1;" vertex="1" parent="1">
          <mxGeometry x="122.75" y="7080" width="207.25" height="80" as="geometry" />
        </mxCell>
        <mxCell id="Tlv0mU6QZfII-HZCm7lc-255" style="edgeStyle=orthogonalEdgeStyle;rounded=0;orthogonalLoop=1;jettySize=auto;html=1;exitX=1;exitY=0.5;exitDx=0;exitDy=0;entryX=0;entryY=0.5;entryDx=0;entryDy=0;" edge="1" parent="1" source="Tlv0mU6QZfII-HZCm7lc-252" target="Tlv0mU6QZfII-HZCm7lc-254">
          <mxGeometry relative="1" as="geometry" />
        </mxCell>
        <mxCell id="Tlv0mU6QZfII-HZCm7lc-252" value="&lt;span style=&quot;font-size:12.0pt;line-height:107%;&lt;br/&gt;font-family:&amp;quot;Times New Roman&amp;quot;,serif;mso-fareast-font-family:Calibri;mso-fareast-theme-font:&lt;br/&gt;minor-latin;mso-ansi-language:RU;mso-fareast-language:EN-US;mso-bidi-language:&lt;br/&gt;AR-SA&quot;&gt;Составляется отчет об эффективности для внутреннего использования и&lt;br/&gt;представления клиенту.&lt;/span&gt;" style="rounded=0;whiteSpace=wrap;html=1;" vertex="1" parent="1">
          <mxGeometry x="124.75" y="7190" width="193.5" height="120" as="geometry" />
        </mxCell>
        <mxCell id="Tlv0mU6QZfII-HZCm7lc-258" style="edgeStyle=orthogonalEdgeStyle;rounded=0;orthogonalLoop=1;jettySize=auto;html=1;exitX=0.5;exitY=1;exitDx=0;exitDy=0;entryX=0.5;entryY=0;entryDx=0;entryDy=0;" edge="1" parent="1" source="Tlv0mU6QZfII-HZCm7lc-254" target="Tlv0mU6QZfII-HZCm7lc-257">
          <mxGeometry relative="1" as="geometry" />
        </mxCell>
        <mxCell id="Tlv0mU6QZfII-HZCm7lc-254" value="ожидание ответа клиента" style="rounded=0;whiteSpace=wrap;html=1;" vertex="1" parent="1">
          <mxGeometry x="477" y="7080" width="210" height="150" as="geometry" />
        </mxCell>
        <mxCell id="Tlv0mU6QZfII-HZCm7lc-256" value="" style="ellipse;whiteSpace=wrap;html=1;aspect=fixed;" vertex="1" parent="1">
          <mxGeometry x="550" y="7298.75" width="61.25" height="61.25" as="geometry" />
        </mxCell>
        <mxCell id="Tlv0mU6QZfII-HZCm7lc-257" value="" style="ellipse;whiteSpace=wrap;html=1;aspect=fixed;" vertex="1" parent="1">
          <mxGeometry x="555" y="7304.38" width="50" height="50" as="geometry" />
        </mxCell>
        <mxCell id="Tlv0mU6QZfII-HZCm7lc-259" value="" style="endArrow=none;html=1;rounded=0;" edge="1" parent="1">
          <mxGeometry width="50" height="50" relative="1" as="geometry">
            <mxPoint x="10" y="7440" as="sourcePoint" />
            <mxPoint x="800" y="7440" as="targetPoint" />
          </mxGeometry>
        </mxCell>
        <mxCell id="Tlv0mU6QZfII-HZCm7lc-261" value="&lt;span style=&quot;font-size:12.0pt;line-height:107%;&lt;br/&gt;font-family:&amp;quot;Times New Roman&amp;quot;,serif;mso-fareast-font-family:Calibri;mso-fareast-theme-font:&lt;br/&gt;minor-latin;mso-ansi-language:RU;mso-fareast-language:EN-US;mso-bidi-language:&lt;br/&gt;AR-SA&quot;&gt;Утверждение рекламных материалов&lt;/span&gt;" style="text;html=1;align=center;verticalAlign=middle;whiteSpace=wrap;rounded=0;" vertex="1" parent="1">
          <mxGeometry x="35" y="7470" width="295" height="30" as="geometry" />
        </mxCell>
        <mxCell id="Tlv0mU6QZfII-HZCm7lc-262" value="клиент" style="text;html=1;align=center;verticalAlign=middle;whiteSpace=wrap;rounded=0;" vertex="1" parent="1">
          <mxGeometry x="64.75" y="7520" width="60" height="30" as="geometry" />
        </mxCell>
        <mxCell id="Tlv0mU6QZfII-HZCm7lc-263" value="система" style="text;html=1;align=center;verticalAlign=middle;whiteSpace=wrap;rounded=0;" vertex="1" parent="1">
          <mxGeometry x="370" y="7540" width="60" height="30" as="geometry" />
        </mxCell>
        <mxCell id="Tlv0mU6QZfII-HZCm7lc-266" style="edgeStyle=orthogonalEdgeStyle;rounded=0;orthogonalLoop=1;jettySize=auto;html=1;exitX=0.5;exitY=1;exitDx=0;exitDy=0;entryX=0.5;entryY=0;entryDx=0;entryDy=0;" edge="1" parent="1" source="Tlv0mU6QZfII-HZCm7lc-264" target="Tlv0mU6QZfII-HZCm7lc-265">
          <mxGeometry relative="1" as="geometry" />
        </mxCell>
        <mxCell id="Tlv0mU6QZfII-HZCm7lc-264" value="менеджер" style="text;html=1;align=center;verticalAlign=middle;whiteSpace=wrap;rounded=0;" vertex="1" parent="1">
          <mxGeometry x="626.26" y="7520" width="60" height="30" as="geometry" />
        </mxCell>
        <mxCell id="Tlv0mU6QZfII-HZCm7lc-271" style="edgeStyle=orthogonalEdgeStyle;rounded=0;orthogonalLoop=1;jettySize=auto;html=1;exitX=0.5;exitY=1;exitDx=0;exitDy=0;entryX=0.5;entryY=0;entryDx=0;entryDy=0;" edge="1" parent="1" source="Tlv0mU6QZfII-HZCm7lc-265" target="Tlv0mU6QZfII-HZCm7lc-270">
          <mxGeometry relative="1" as="geometry" />
        </mxCell>
        <mxCell id="Tlv0mU6QZfII-HZCm7lc-265" value="&lt;span style=&quot;font-size:12.0pt;line-height:107%;&lt;br/&gt;font-family:&amp;quot;Times New Roman&amp;quot;,serif;mso-fareast-font-family:Calibri;mso-fareast-theme-font:&lt;br/&gt;minor-latin;mso-ansi-language:RU;mso-fareast-language:EN-US;mso-bidi-language:&lt;br/&gt;AR-SA&quot;&gt;Менеджер проектов предоставляет клиенту доступ к рекламным материалам.&lt;/span&gt;" style="rounded=0;whiteSpace=wrap;html=1;" vertex="1" parent="1">
          <mxGeometry x="537.5" y="7620" width="265" height="70" as="geometry" />
        </mxCell>
        <mxCell id="Tlv0mU6QZfII-HZCm7lc-267" value="" style="endArrow=none;html=1;rounded=0;" edge="1" parent="1">
          <mxGeometry width="50" height="50" relative="1" as="geometry">
            <mxPoint x="248.57" y="7960" as="sourcePoint" />
            <mxPoint x="248.57" y="7570" as="targetPoint" />
          </mxGeometry>
        </mxCell>
        <mxCell id="Tlv0mU6QZfII-HZCm7lc-268" value="" style="endArrow=none;html=1;rounded=0;" edge="1" parent="1">
          <mxGeometry width="50" height="50" relative="1" as="geometry">
            <mxPoint x="513.76" y="7960" as="sourcePoint" />
            <mxPoint x="513.76" y="7570" as="targetPoint" />
          </mxGeometry>
        </mxCell>
        <mxCell id="Tlv0mU6QZfII-HZCm7lc-273" style="edgeStyle=orthogonalEdgeStyle;rounded=0;orthogonalLoop=1;jettySize=auto;html=1;exitX=0.5;exitY=1;exitDx=0;exitDy=0;entryX=0;entryY=0.5;entryDx=0;entryDy=0;" edge="1" parent="1" source="Tlv0mU6QZfII-HZCm7lc-270" target="Tlv0mU6QZfII-HZCm7lc-272">
          <mxGeometry relative="1" as="geometry" />
        </mxCell>
        <mxCell id="Tlv0mU6QZfII-HZCm7lc-270" value="&lt;span style=&quot;font-size:12.0pt;line-height:107%;&lt;br/&gt;font-family:&amp;quot;Times New Roman&amp;quot;,serif;mso-fareast-font-family:Calibri;mso-fareast-theme-font:&lt;br/&gt;minor-latin;mso-ansi-language:RU;mso-fareast-language:EN-US;mso-bidi-language:&lt;br/&gt;AR-SA&quot;&gt;&amp;nbsp;Клиент ознакомляется с&lt;br/&gt;материалами и дает обратную связь.&lt;/span&gt;" style="rounded=0;whiteSpace=wrap;html=1;" vertex="1" parent="1">
          <mxGeometry x="52.5" y="7670" width="157.5" height="90" as="geometry" />
        </mxCell>
        <mxCell id="Tlv0mU6QZfII-HZCm7lc-272" value="обратная связь" style="rounded=0;whiteSpace=wrap;html=1;" vertex="1" parent="1">
          <mxGeometry x="335" y="7770" width="120" height="60" as="geometry" />
        </mxCell>
        <mxCell id="Tlv0mU6QZfII-HZCm7lc-284" style="edgeStyle=orthogonalEdgeStyle;rounded=0;orthogonalLoop=1;jettySize=auto;html=1;exitX=1;exitY=0.5;exitDx=0;exitDy=0;entryX=0.5;entryY=0;entryDx=0;entryDy=0;" edge="1" parent="1" source="Tlv0mU6QZfII-HZCm7lc-274" target="Tlv0mU6QZfII-HZCm7lc-283">
          <mxGeometry relative="1" as="geometry">
            <mxPoint x="550" y="7870" as="targetPoint" />
            <Array as="points">
              <mxPoint x="560" y="7885" />
              <mxPoint x="560" y="7840" />
              <mxPoint x="695" y="7840" />
            </Array>
          </mxGeometry>
        </mxCell>
        <mxCell id="Tlv0mU6QZfII-HZCm7lc-274" value="" style="rhombus;whiteSpace=wrap;html=1;" vertex="1" parent="1">
          <mxGeometry x="350" y="7860" width="80" height="50" as="geometry" />
        </mxCell>
        <mxCell id="Tlv0mU6QZfII-HZCm7lc-275" value="&lt;span style=&quot;font-size:12.0pt;line-height:107%;&lt;br/&gt;font-family:&amp;quot;Times New Roman&amp;quot;,serif;mso-fareast-font-family:Calibri;mso-fareast-theme-font:&lt;br/&gt;minor-latin;color:red;mso-ansi-language:RU;mso-fareast-language:EN-US;&lt;br/&gt;mso-bidi-language:AR-SA&quot;&gt;Клиент требует изменений в рекламных материалах&lt;/span&gt;" style="text;html=1;align=center;verticalAlign=middle;whiteSpace=wrap;rounded=0;" vertex="1" parent="1">
          <mxGeometry x="273.76" y="7920" width="240" height="30" as="geometry" />
        </mxCell>
        <mxCell id="Tlv0mU6QZfII-HZCm7lc-282" style="edgeStyle=orthogonalEdgeStyle;rounded=0;orthogonalLoop=1;jettySize=auto;html=1;exitX=0.5;exitY=1;exitDx=0;exitDy=0;entryX=0.5;entryY=0;entryDx=0;entryDy=0;" edge="1" parent="1" source="Tlv0mU6QZfII-HZCm7lc-276" target="Tlv0mU6QZfII-HZCm7lc-281">
          <mxGeometry relative="1" as="geometry" />
        </mxCell>
        <mxCell id="Tlv0mU6QZfII-HZCm7lc-276" value="&lt;span style=&quot;font-size:12.0pt;line-height:107%;&lt;br/&gt;font-family:&amp;quot;Times New Roman&amp;quot;,serif;mso-fareast-font-family:Calibri;mso-fareast-theme-font:&lt;br/&gt;minor-latin;mso-ansi-language:RU;mso-fareast-language:EN-US;mso-bidi-language:&lt;br/&gt;AR-SA&quot;&gt;Клиент утверждает финальные версии рекламных материалов.&amp;nbsp;&lt;/span&gt;" style="rounded=0;whiteSpace=wrap;html=1;" vertex="1" parent="1">
          <mxGeometry x="62.5" y="7930" width="167.5" height="90" as="geometry" />
        </mxCell>
        <mxCell id="Tlv0mU6QZfII-HZCm7lc-279" style="edgeStyle=orthogonalEdgeStyle;rounded=0;orthogonalLoop=1;jettySize=auto;html=1;exitX=0;exitY=0.5;exitDx=0;exitDy=0;entryX=0.5;entryY=0;entryDx=0;entryDy=0;" edge="1" parent="1" source="Tlv0mU6QZfII-HZCm7lc-274" target="Tlv0mU6QZfII-HZCm7lc-276">
          <mxGeometry relative="1" as="geometry" />
        </mxCell>
        <mxCell id="Tlv0mU6QZfII-HZCm7lc-277" value="нет" style="text;html=1;align=center;verticalAlign=middle;whiteSpace=wrap;rounded=0;" vertex="1" parent="1">
          <mxGeometry x="290" y="7860" width="50" height="30" as="geometry" />
        </mxCell>
        <mxCell id="Tlv0mU6QZfII-HZCm7lc-278" value="да" style="text;html=1;align=center;verticalAlign=middle;whiteSpace=wrap;rounded=0;" vertex="1" parent="1">
          <mxGeometry x="402.5" y="7850" width="60" height="30" as="geometry" />
        </mxCell>
        <mxCell id="Tlv0mU6QZfII-HZCm7lc-280" value="" style="ellipse;whiteSpace=wrap;html=1;aspect=fixed;" vertex="1" parent="1">
          <mxGeometry x="90" y="8058.5" width="61.5" height="61.5" as="geometry" />
        </mxCell>
        <mxCell id="Tlv0mU6QZfII-HZCm7lc-281" value="" style="ellipse;whiteSpace=wrap;html=1;aspect=fixed;" vertex="1" parent="1">
          <mxGeometry x="95.5" y="8064.25" width="50" height="50" as="geometry" />
        </mxCell>
        <mxCell id="Tlv0mU6QZfII-HZCm7lc-283" value="&lt;span style=&quot;font-size:12.0pt;line-height:107%;&lt;br/&gt;font-family:&amp;quot;Times New Roman&amp;quot;,serif;mso-fareast-font-family:Calibri;mso-fareast-theme-font:&lt;br/&gt;minor-latin;mso-ansi-language:RU;mso-fareast-language:EN-US;mso-bidi-language:&lt;br/&gt;AR-SA&quot;&gt;Менеджер проектов организует внесение требуемых изменений.&lt;/span&gt;" style="rounded=0;whiteSpace=wrap;html=1;" vertex="1" parent="1">
          <mxGeometry x="610" y="7860" width="170" height="100" as="geometry" />
        </mxCell>
        <mxCell id="Tlv0mU6QZfII-HZCm7lc-285" style="edgeStyle=orthogonalEdgeStyle;rounded=0;orthogonalLoop=1;jettySize=auto;html=1;exitX=1;exitY=0.5;exitDx=0;exitDy=0;entryX=0.999;entryY=0.408;entryDx=0;entryDy=0;entryPerimeter=0;" edge="1" parent="1" source="Tlv0mU6QZfII-HZCm7lc-283" target="Tlv0mU6QZfII-HZCm7lc-265">
          <mxGeometry relative="1" as="geometry">
            <Array as="points">
              <mxPoint x="890" y="7910" />
              <mxPoint x="890" y="7649" />
            </Array>
          </mxGeometry>
        </mxCell>
        <mxCell id="Tlv0mU6QZfII-HZCm7lc-286" value="согласование рекламного концепта" style="text;html=1;align=center;verticalAlign=middle;whiteSpace=wrap;rounded=0;" vertex="1" parent="1">
          <mxGeometry x="75" y="8210" width="255" height="30" as="geometry" />
        </mxCell>
        <mxCell id="Tlv0mU6QZfII-HZCm7lc-287" value="менеджер" style="text;html=1;align=center;verticalAlign=middle;whiteSpace=wrap;rounded=0;" vertex="1" parent="1">
          <mxGeometry x="124.75" y="8260" width="60" height="30" as="geometry" />
        </mxCell>
        <mxCell id="Tlv0mU6QZfII-HZCm7lc-288" value="специалист" style="text;html=1;align=center;verticalAlign=middle;whiteSpace=wrap;rounded=0;" vertex="1" parent="1">
          <mxGeometry x="632.5" y="8260" width="60" height="30" as="geometry" />
        </mxCell>
        <mxCell id="Tlv0mU6QZfII-HZCm7lc-289" value="система" style="text;html=1;align=center;verticalAlign=middle;whiteSpace=wrap;rounded=0;" vertex="1" parent="1">
          <mxGeometry x="417" y="8250" width="60" height="30" as="geometry" />
        </mxCell>
        <mxCell id="Tlv0mU6QZfII-HZCm7lc-296" style="edgeStyle=orthogonalEdgeStyle;rounded=0;orthogonalLoop=1;jettySize=auto;html=1;exitX=1;exitY=0.5;exitDx=0;exitDy=0;entryX=0;entryY=0.5;entryDx=0;entryDy=0;" edge="1" parent="1" source="Tlv0mU6QZfII-HZCm7lc-290" target="Tlv0mU6QZfII-HZCm7lc-295">
          <mxGeometry relative="1" as="geometry" />
        </mxCell>
        <mxCell id="Tlv0mU6QZfII-HZCm7lc-290" value="&lt;span style=&quot;font-size:12.0pt;line-height:107%;&lt;br/&gt;font-family:&amp;quot;Times New Roman&amp;quot;,serif;mso-fareast-font-family:Calibri;mso-fareast-theme-font:&lt;br/&gt;minor-latin;mso-ansi-language:RU;mso-fareast-language:EN-US;mso-bidi-language:&lt;br/&gt;AR-SA&quot;&gt;Менеджер проектов собирает команду специалистов для разработки концепта и распределяет обязанности&lt;/span&gt;" style="rounded=0;whiteSpace=wrap;html=1;" vertex="1" parent="1">
          <mxGeometry x="47.5" y="8400" width="235" height="90" as="geometry" />
        </mxCell>
        <mxCell id="Tlv0mU6QZfII-HZCm7lc-291" value="" style="ellipse;whiteSpace=wrap;html=1;aspect=fixed;" vertex="1" parent="1">
          <mxGeometry x="144.5" y="8320" width="30" height="30" as="geometry" />
        </mxCell>
        <mxCell id="Tlv0mU6QZfII-HZCm7lc-292" value="" style="endArrow=none;html=1;rounded=0;" edge="1" parent="1">
          <mxGeometry width="50" height="50" relative="1" as="geometry">
            <mxPoint x="30" y="8140" as="sourcePoint" />
            <mxPoint x="810" y="8140" as="targetPoint" />
          </mxGeometry>
        </mxCell>
        <mxCell id="Tlv0mU6QZfII-HZCm7lc-293" value="" style="endArrow=none;html=1;rounded=0;" edge="1" parent="1">
          <mxGeometry width="50" height="50" relative="1" as="geometry">
            <mxPoint x="340" y="8742.694284539473" as="sourcePoint" />
            <mxPoint x="340" y="8260" as="targetPoint" />
          </mxGeometry>
        </mxCell>
        <mxCell id="Tlv0mU6QZfII-HZCm7lc-294" value="" style="endArrow=none;html=1;rounded=0;" edge="1" parent="1">
          <mxGeometry width="50" height="50" relative="1" as="geometry">
            <mxPoint x="548.95" y="8752.694284539473" as="sourcePoint" />
            <mxPoint x="548.95" y="8270" as="targetPoint" />
          </mxGeometry>
        </mxCell>
        <mxCell id="Tlv0mU6QZfII-HZCm7lc-299" style="edgeStyle=orthogonalEdgeStyle;rounded=0;orthogonalLoop=1;jettySize=auto;html=1;exitX=1;exitY=0.5;exitDx=0;exitDy=0;entryX=0.5;entryY=0;entryDx=0;entryDy=0;" edge="1" parent="1" source="Tlv0mU6QZfII-HZCm7lc-295" target="Tlv0mU6QZfII-HZCm7lc-298">
          <mxGeometry relative="1" as="geometry" />
        </mxCell>
        <mxCell id="Tlv0mU6QZfII-HZCm7lc-295" value="находит необходимых специалистов" style="rounded=0;whiteSpace=wrap;html=1;" vertex="1" parent="1">
          <mxGeometry x="393.76" y="8415" width="120" height="60" as="geometry" />
        </mxCell>
        <mxCell id="Tlv0mU6QZfII-HZCm7lc-301" style="edgeStyle=orthogonalEdgeStyle;rounded=0;orthogonalLoop=1;jettySize=auto;html=1;exitX=0.5;exitY=1;exitDx=0;exitDy=0;entryX=1;entryY=0.75;entryDx=0;entryDy=0;" edge="1" parent="1" source="Tlv0mU6QZfII-HZCm7lc-298" target="Tlv0mU6QZfII-HZCm7lc-300">
          <mxGeometry relative="1" as="geometry" />
        </mxCell>
        <mxCell id="Tlv0mU6QZfII-HZCm7lc-298" value="специалисты начинают работу над идеями" style="rounded=0;whiteSpace=wrap;html=1;" vertex="1" parent="1">
          <mxGeometry x="650" y="8460" width="120" height="60" as="geometry" />
        </mxCell>
        <mxCell id="Tlv0mU6QZfII-HZCm7lc-302" style="edgeStyle=orthogonalEdgeStyle;rounded=0;orthogonalLoop=1;jettySize=auto;html=1;exitX=0;exitY=0.5;exitDx=0;exitDy=0;entryX=0.5;entryY=0;entryDx=0;entryDy=0;" edge="1" parent="1" source="Tlv0mU6QZfII-HZCm7lc-300" target="Tlv0mU6QZfII-HZCm7lc-303">
          <mxGeometry relative="1" as="geometry">
            <mxPoint x="180" y="8570" as="targetPoint" />
          </mxGeometry>
        </mxCell>
        <mxCell id="Tlv0mU6QZfII-HZCm7lc-300" value="предоставление набросков менеджеру" style="rounded=0;whiteSpace=wrap;html=1;" vertex="1" parent="1">
          <mxGeometry x="393.76" y="8560" width="120" height="60" as="geometry" />
        </mxCell>
        <mxCell id="Tlv0mU6QZfII-HZCm7lc-306" style="edgeStyle=orthogonalEdgeStyle;rounded=0;orthogonalLoop=1;jettySize=auto;html=1;exitX=1;exitY=0.5;exitDx=0;exitDy=0;entryX=1;entryY=0.5;entryDx=0;entryDy=0;" edge="1" parent="1" source="Tlv0mU6QZfII-HZCm7lc-303" target="Tlv0mU6QZfII-HZCm7lc-305">
          <mxGeometry relative="1" as="geometry">
            <Array as="points">
              <mxPoint x="270" y="8610" />
              <mxPoint x="270" y="8761" />
            </Array>
          </mxGeometry>
        </mxCell>
        <mxCell id="Tlv0mU6QZfII-HZCm7lc-303" value="" style="rhombus;whiteSpace=wrap;html=1;" vertex="1" parent="1">
          <mxGeometry x="115" y="8580" width="80" height="60" as="geometry" />
        </mxCell>
        <mxCell id="Tlv0mU6QZfII-HZCm7lc-304" value="менеджер утверждает идею" style="text;html=1;align=center;verticalAlign=middle;whiteSpace=wrap;rounded=0;" vertex="1" parent="1">
          <mxGeometry x="89.5" y="8650" width="140" height="30" as="geometry" />
        </mxCell>
        <mxCell id="Tlv0mU6QZfII-HZCm7lc-305" value="" style="ellipse;whiteSpace=wrap;html=1;aspect=fixed;" vertex="1" parent="1">
          <mxGeometry x="115" y="8730" width="61.5" height="61.5" as="geometry" />
        </mxCell>
        <mxCell id="Tlv0mU6QZfII-HZCm7lc-307" value="да" style="text;html=1;align=center;verticalAlign=middle;whiteSpace=wrap;rounded=0;" vertex="1" parent="1">
          <mxGeometry x="191.5" y="8575" width="60" height="30" as="geometry" />
        </mxCell>
        <mxCell id="Tlv0mU6QZfII-HZCm7lc-308" value="нет" style="text;html=1;align=center;verticalAlign=middle;whiteSpace=wrap;rounded=0;" vertex="1" parent="1">
          <mxGeometry x="80" y="8575" width="60" height="20" as="geometry" />
        </mxCell>
        <mxCell id="Tlv0mU6QZfII-HZCm7lc-309" style="edgeStyle=orthogonalEdgeStyle;rounded=0;orthogonalLoop=1;jettySize=auto;html=1;exitX=0;exitY=0.5;exitDx=0;exitDy=0;entryX=0.48;entryY=1.026;entryDx=0;entryDy=0;entryPerimeter=0;" edge="1" parent="1" source="Tlv0mU6QZfII-HZCm7lc-303" target="Tlv0mU6QZfII-HZCm7lc-290">
          <mxGeometry relative="1" as="geometry" />
        </mxCell>
        <mxCell id="Tlv0mU6QZfII-HZCm7lc-310" value="" style="ellipse;whiteSpace=wrap;html=1;aspect=fixed;" vertex="1" parent="1">
          <mxGeometry x="127.88" y="8742.88" width="35.75" height="35.75" as="geometry" />
        </mxCell>
        <mxCell id="Tlv0mU6QZfII-HZCm7lc-311" value="" style="endArrow=none;html=1;rounded=0;" edge="1" parent="1">
          <mxGeometry width="50" height="50" relative="1" as="geometry">
            <mxPoint x="25" y="8820" as="sourcePoint" />
            <mxPoint x="805" y="8820" as="targetPoint" />
          </mxGeometry>
        </mxCell>
        <mxCell id="Tlv0mU6QZfII-HZCm7lc-313" value="ведение базы данных проектов" style="text;html=1;align=center;verticalAlign=middle;whiteSpace=wrap;rounded=0;" vertex="1" parent="1">
          <mxGeometry x="64.75" y="8860" width="275.25" height="30" as="geometry" />
        </mxCell>
        <mxCell id="Tlv0mU6QZfII-HZCm7lc-314" value="система" style="text;html=1;align=center;verticalAlign=middle;whiteSpace=wrap;rounded=0;" vertex="1" parent="1">
          <mxGeometry x="125" y="8910" width="60" height="30" as="geometry" />
        </mxCell>
        <mxCell id="Tlv0mU6QZfII-HZCm7lc-315" value="менеджеры" style="text;html=1;align=center;verticalAlign=middle;whiteSpace=wrap;rounded=0;" vertex="1" parent="1">
          <mxGeometry x="513.76" y="8900" width="60" height="30" as="geometry" />
        </mxCell>
        <mxCell id="Tlv0mU6QZfII-HZCm7lc-322" style="edgeStyle=orthogonalEdgeStyle;rounded=0;orthogonalLoop=1;jettySize=auto;html=1;exitX=0.5;exitY=1;exitDx=0;exitDy=0;entryX=0.5;entryY=0;entryDx=0;entryDy=0;" edge="1" parent="1" source="Tlv0mU6QZfII-HZCm7lc-316" target="Tlv0mU6QZfII-HZCm7lc-319">
          <mxGeometry relative="1" as="geometry" />
        </mxCell>
        <mxCell id="Tlv0mU6QZfII-HZCm7lc-316" value="" style="ellipse;whiteSpace=wrap;html=1;aspect=fixed;" vertex="1" parent="1">
          <mxGeometry x="520" y="8950" width="50" height="50" as="geometry" />
        </mxCell>
        <mxCell id="Tlv0mU6QZfII-HZCm7lc-317" value="" style="endArrow=none;html=1;rounded=0;" edge="1" parent="1">
          <mxGeometry width="50" height="50" relative="1" as="geometry">
            <mxPoint x="390" y="10620" as="sourcePoint" />
            <mxPoint x="380" y="8840" as="targetPoint" />
          </mxGeometry>
        </mxCell>
        <mxCell id="Tlv0mU6QZfII-HZCm7lc-319" value="менеджер создает базу данных для проектов" style="rounded=0;whiteSpace=wrap;html=1;" vertex="1" parent="1">
          <mxGeometry x="491.5" y="9050" width="120" height="60" as="geometry" />
        </mxCell>
        <mxCell id="Tlv0mU6QZfII-HZCm7lc-324" style="edgeStyle=orthogonalEdgeStyle;rounded=0;orthogonalLoop=1;jettySize=auto;html=1;exitX=0.5;exitY=1;exitDx=0;exitDy=0;entryX=0.5;entryY=0;entryDx=0;entryDy=0;" edge="1" parent="1" source="Tlv0mU6QZfII-HZCm7lc-320" target="Tlv0mU6QZfII-HZCm7lc-323">
          <mxGeometry relative="1" as="geometry" />
        </mxCell>
        <mxCell id="Tlv0mU6QZfII-HZCm7lc-320" value="система отображает новую пустую базу" style="rounded=0;whiteSpace=wrap;html=1;" vertex="1" parent="1">
          <mxGeometry x="80" y="9110" width="120" height="60" as="geometry" />
        </mxCell>
        <mxCell id="Tlv0mU6QZfII-HZCm7lc-321" style="edgeStyle=orthogonalEdgeStyle;rounded=0;orthogonalLoop=1;jettySize=auto;html=1;exitX=0.5;exitY=1;exitDx=0;exitDy=0;entryX=0.557;entryY=-0.001;entryDx=0;entryDy=0;entryPerimeter=0;" edge="1" parent="1" source="Tlv0mU6QZfII-HZCm7lc-319" target="Tlv0mU6QZfII-HZCm7lc-320">
          <mxGeometry relative="1" as="geometry" />
        </mxCell>
        <mxCell id="Tlv0mU6QZfII-HZCm7lc-326" style="edgeStyle=orthogonalEdgeStyle;rounded=0;orthogonalLoop=1;jettySize=auto;html=1;exitX=0.5;exitY=1;exitDx=0;exitDy=0;" edge="1" parent="1" source="Tlv0mU6QZfII-HZCm7lc-323" target="Tlv0mU6QZfII-HZCm7lc-325">
          <mxGeometry relative="1" as="geometry" />
        </mxCell>
        <mxCell id="Tlv0mU6QZfII-HZCm7lc-323" value="добавляет в базу новый проект и данные о нем" style="rounded=0;whiteSpace=wrap;html=1;" vertex="1" parent="1">
          <mxGeometry x="490" y="9190" width="120" height="60" as="geometry" />
        </mxCell>
        <mxCell id="Tlv0mU6QZfII-HZCm7lc-329" style="edgeStyle=orthogonalEdgeStyle;rounded=0;orthogonalLoop=1;jettySize=auto;html=1;exitX=0.5;exitY=1;exitDx=0;exitDy=0;entryX=0.5;entryY=0;entryDx=0;entryDy=0;" edge="1" parent="1" source="Tlv0mU6QZfII-HZCm7lc-325" target="Tlv0mU6QZfII-HZCm7lc-328">
          <mxGeometry relative="1" as="geometry" />
        </mxCell>
        <mxCell id="Tlv0mU6QZfII-HZCm7lc-325" value="система сохраняет действия" style="rounded=0;whiteSpace=wrap;html=1;" vertex="1" parent="1">
          <mxGeometry x="115" y="9280" width="120" height="60" as="geometry" />
        </mxCell>
        <mxCell id="Tlv0mU6QZfII-HZCm7lc-327" value="" style="ellipse;whiteSpace=wrap;html=1;aspect=fixed;" vertex="1" parent="1">
          <mxGeometry x="150" y="9379.25" width="40.75" height="40.75" as="geometry" />
        </mxCell>
        <mxCell id="Tlv0mU6QZfII-HZCm7lc-328" value="" style="ellipse;whiteSpace=wrap;html=1;aspect=fixed;" vertex="1" parent="1">
          <mxGeometry x="155.38" y="9384.63" width="30" height="30" as="geometry" />
        </mxCell>
        <mxCell id="Tlv0mU6QZfII-HZCm7lc-330" value="" style="endArrow=none;html=1;rounded=0;" edge="1" parent="1">
          <mxGeometry width="50" height="50" relative="1" as="geometry">
            <mxPoint x="4" y="9460" as="sourcePoint" />
            <mxPoint x="784" y="9460" as="targetPoint" />
          </mxGeometry>
        </mxCell>
        <mxCell id="Tlv0mU6QZfII-HZCm7lc-332" value="анализ трендов рынка и оптимизация стратегий" style="text;html=1;align=center;verticalAlign=middle;whiteSpace=wrap;rounded=0;" vertex="1" parent="1">
          <mxGeometry x="21.5" y="9490" width="278.5" height="30" as="geometry" />
        </mxCell>
        <mxCell id="Tlv0mU6QZfII-HZCm7lc-333" value="специалист" style="text;html=1;align=center;verticalAlign=middle;whiteSpace=wrap;rounded=0;" vertex="1" parent="1">
          <mxGeometry x="567.5" y="9520" width="60" height="30" as="geometry" />
        </mxCell>
        <mxCell id="Tlv0mU6QZfII-HZCm7lc-334" value="система" style="text;html=1;align=center;verticalAlign=middle;whiteSpace=wrap;rounded=0;" vertex="1" parent="1">
          <mxGeometry x="89.5" y="9540" width="60" height="30" as="geometry" />
        </mxCell>
        <mxCell id="Tlv0mU6QZfII-HZCm7lc-338" style="edgeStyle=orthogonalEdgeStyle;rounded=0;orthogonalLoop=1;jettySize=auto;html=1;exitX=0.5;exitY=1;exitDx=0;exitDy=0;entryX=0.5;entryY=0;entryDx=0;entryDy=0;" edge="1" parent="1" source="Tlv0mU6QZfII-HZCm7lc-335" target="Tlv0mU6QZfII-HZCm7lc-336">
          <mxGeometry relative="1" as="geometry" />
        </mxCell>
        <mxCell id="Tlv0mU6QZfII-HZCm7lc-335" value="" style="ellipse;whiteSpace=wrap;html=1;aspect=fixed;" vertex="1" parent="1">
          <mxGeometry x="577.5" y="9570" width="40" height="40" as="geometry" />
        </mxCell>
        <mxCell id="Tlv0mU6QZfII-HZCm7lc-339" style="edgeStyle=orthogonalEdgeStyle;rounded=0;orthogonalLoop=1;jettySize=auto;html=1;exitX=0.5;exitY=1;exitDx=0;exitDy=0;entryX=0.5;entryY=0;entryDx=0;entryDy=0;" edge="1" parent="1" source="Tlv0mU6QZfII-HZCm7lc-336" target="Tlv0mU6QZfII-HZCm7lc-337">
          <mxGeometry relative="1" as="geometry" />
        </mxCell>
        <mxCell id="Tlv0mU6QZfII-HZCm7lc-336" value="анализ трендов рынка" style="rounded=0;whiteSpace=wrap;html=1;" vertex="1" parent="1">
          <mxGeometry x="550" y="9640" width="120" height="60" as="geometry" />
        </mxCell>
        <mxCell id="Tlv0mU6QZfII-HZCm7lc-342" style="edgeStyle=orthogonalEdgeStyle;rounded=0;orthogonalLoop=1;jettySize=auto;html=1;exitX=0.5;exitY=1;exitDx=0;exitDy=0;entryX=0.5;entryY=0;entryDx=0;entryDy=0;" edge="1" parent="1" source="Tlv0mU6QZfII-HZCm7lc-337" target="Tlv0mU6QZfII-HZCm7lc-340">
          <mxGeometry relative="1" as="geometry" />
        </mxCell>
        <mxCell id="Tlv0mU6QZfII-HZCm7lc-337" value="идентификация ключевых изменений и возможностей" style="rounded=0;whiteSpace=wrap;html=1;" vertex="1" parent="1">
          <mxGeometry x="550" y="9730" width="120" height="60" as="geometry" />
        </mxCell>
        <mxCell id="Tlv0mU6QZfII-HZCm7lc-340" value="внедрение новых стратегий&amp;nbsp;" style="rounded=0;whiteSpace=wrap;html=1;" vertex="1" parent="1">
          <mxGeometry x="555" y="9810" width="120" height="60" as="geometry" />
        </mxCell>
        <mxCell id="Tlv0mU6QZfII-HZCm7lc-345" style="edgeStyle=orthogonalEdgeStyle;rounded=0;orthogonalLoop=1;jettySize=auto;html=1;exitX=0.5;exitY=1;exitDx=0;exitDy=0;entryX=0;entryY=0.5;entryDx=0;entryDy=0;" edge="1" parent="1" source="Tlv0mU6QZfII-HZCm7lc-341" target="Tlv0mU6QZfII-HZCm7lc-344">
          <mxGeometry relative="1" as="geometry" />
        </mxCell>
        <mxCell id="Tlv0mU6QZfII-HZCm7lc-341" value="анализ их эффективности" style="rounded=0;whiteSpace=wrap;html=1;" vertex="1" parent="1">
          <mxGeometry x="94.75" y="9830" width="120" height="60" as="geometry" />
        </mxCell>
        <mxCell id="Tlv0mU6QZfII-HZCm7lc-343" style="edgeStyle=orthogonalEdgeStyle;rounded=0;orthogonalLoop=1;jettySize=auto;html=1;exitX=0.5;exitY=1;exitDx=0;exitDy=0;entryX=0.549;entryY=-0.024;entryDx=0;entryDy=0;entryPerimeter=0;" edge="1" parent="1" source="Tlv0mU6QZfII-HZCm7lc-340" target="Tlv0mU6QZfII-HZCm7lc-341">
          <mxGeometry relative="1" as="geometry">
            <Array as="points">
              <mxPoint x="615" y="9890" />
              <mxPoint x="385" y="9890" />
              <mxPoint x="385" y="9790" />
              <mxPoint x="161" y="9790" />
            </Array>
          </mxGeometry>
        </mxCell>
        <mxCell id="Tlv0mU6QZfII-HZCm7lc-348" style="edgeStyle=orthogonalEdgeStyle;rounded=0;orthogonalLoop=1;jettySize=auto;html=1;exitX=0.5;exitY=1;exitDx=0;exitDy=0;entryX=0.5;entryY=0;entryDx=0;entryDy=0;" edge="1" parent="1" source="Tlv0mU6QZfII-HZCm7lc-344" target="Tlv0mU6QZfII-HZCm7lc-347">
          <mxGeometry relative="1" as="geometry" />
        </mxCell>
        <mxCell id="Tlv0mU6QZfII-HZCm7lc-344" value="&lt;br&gt;&lt;span style=&quot;color: rgb(0, 0, 0); font-family: Roboto, -apple-system, &amp;quot;apple color emoji&amp;quot;, BlinkMacSystemFont, &amp;quot;Segoe UI&amp;quot;, Roboto, Oxygen-Sans, Ubuntu, Cantarell, &amp;quot;Helvetica Neue&amp;quot;, sans-serif; font-size: 16px; font-style: normal; font-variant-ligatures: normal; font-variant-caps: normal; font-weight: 400; letter-spacing: normal; orphans: 2; text-align: start; text-indent: 0px; text-transform: none; widows: 2; word-spacing: 0px; -webkit-text-stroke-width: 0px; white-space: pre-wrap; background-color: rgb(255, 255, 255); text-decoration-thickness: initial; text-decoration-style: initial; text-decoration-color: initial; display: inline !important; float: none;&quot;&gt; Корректировка стратегий при необходимости&lt;/span&gt;" style="rounded=0;whiteSpace=wrap;html=1;" vertex="1" parent="1">
          <mxGeometry x="505" y="9920" width="201" height="60" as="geometry" />
        </mxCell>
        <mxCell id="Tlv0mU6QZfII-HZCm7lc-347" value="" style="ellipse;whiteSpace=wrap;html=1;aspect=fixed;" vertex="1" parent="1">
          <mxGeometry x="605" y="10010" width="40" height="40" as="geometry" />
        </mxCell>
        <mxCell id="Tlv0mU6QZfII-HZCm7lc-349" value="" style="endArrow=none;html=1;rounded=0;" edge="1" parent="1">
          <mxGeometry width="50" height="50" relative="1" as="geometry">
            <mxPoint x="39.5" y="10080" as="sourcePoint" />
            <mxPoint x="819.5" y="10080" as="targetPoint" />
          </mxGeometry>
        </mxCell>
        <mxCell id="Tlv0mU6QZfII-HZCm7lc-351" value="клиент" style="text;html=1;align=center;verticalAlign=middle;whiteSpace=wrap;rounded=0;" vertex="1" parent="1">
          <mxGeometry x="513.76" y="10130" width="60" height="30" as="geometry" />
        </mxCell>
        <mxCell id="Tlv0mU6QZfII-HZCm7lc-352" value="система" style="text;html=1;align=center;verticalAlign=middle;whiteSpace=wrap;rounded=0;" vertex="1" parent="1">
          <mxGeometry x="131.5" y="10140" width="60" height="30" as="geometry" />
        </mxCell>
        <mxCell id="Tlv0mU6QZfII-HZCm7lc-359" style="edgeStyle=orthogonalEdgeStyle;rounded=0;orthogonalLoop=1;jettySize=auto;html=1;exitX=0.5;exitY=1;exitDx=0;exitDy=0;entryX=0.5;entryY=0;entryDx=0;entryDy=0;" edge="1" parent="1" source="Tlv0mU6QZfII-HZCm7lc-353" target="Tlv0mU6QZfII-HZCm7lc-354">
          <mxGeometry relative="1" as="geometry" />
        </mxCell>
        <mxCell id="Tlv0mU6QZfII-HZCm7lc-353" value="" style="ellipse;whiteSpace=wrap;html=1;aspect=fixed;" vertex="1" parent="1">
          <mxGeometry x="560" y="10160" width="60" height="60" as="geometry" />
        </mxCell>
        <mxCell id="Tlv0mU6QZfII-HZCm7lc-357" style="edgeStyle=orthogonalEdgeStyle;rounded=0;orthogonalLoop=1;jettySize=auto;html=1;exitX=0;exitY=0.5;exitDx=0;exitDy=0;entryX=1;entryY=0.5;entryDx=0;entryDy=0;" edge="1" parent="1" source="Tlv0mU6QZfII-HZCm7lc-354" target="Tlv0mU6QZfII-HZCm7lc-355">
          <mxGeometry relative="1" as="geometry" />
        </mxCell>
        <mxCell id="Tlv0mU6QZfII-HZCm7lc-354" value="входит в систему" style="rounded=0;whiteSpace=wrap;html=1;" vertex="1" parent="1">
          <mxGeometry x="531.25" y="10250" width="120" height="60" as="geometry" />
        </mxCell>
        <mxCell id="Tlv0mU6QZfII-HZCm7lc-361" style="edgeStyle=orthogonalEdgeStyle;rounded=0;orthogonalLoop=1;jettySize=auto;html=1;exitX=0.5;exitY=1;exitDx=0;exitDy=0;entryX=0.5;entryY=0;entryDx=0;entryDy=0;" edge="1" parent="1" source="Tlv0mU6QZfII-HZCm7lc-355" target="Tlv0mU6QZfII-HZCm7lc-360">
          <mxGeometry relative="1" as="geometry" />
        </mxCell>
        <mxCell id="Tlv0mU6QZfII-HZCm7lc-355" value="система отображает экран пользователя" style="rounded=0;whiteSpace=wrap;html=1;" vertex="1" parent="1">
          <mxGeometry x="40" y="10260" width="191.25" height="60" as="geometry" />
        </mxCell>
        <mxCell id="Tlv0mU6QZfII-HZCm7lc-358" value="запрос на изменения" style="text;html=1;align=center;verticalAlign=middle;whiteSpace=wrap;rounded=0;" vertex="1" parent="1">
          <mxGeometry x="32.5" y="10090" width="155" height="30" as="geometry" />
        </mxCell>
        <mxCell id="Tlv0mU6QZfII-HZCm7lc-363" style="edgeStyle=orthogonalEdgeStyle;rounded=0;orthogonalLoop=1;jettySize=auto;html=1;exitX=0.5;exitY=1;exitDx=0;exitDy=0;entryX=0.5;entryY=0;entryDx=0;entryDy=0;" edge="1" parent="1" source="Tlv0mU6QZfII-HZCm7lc-360" target="Tlv0mU6QZfII-HZCm7lc-362">
          <mxGeometry relative="1" as="geometry" />
        </mxCell>
        <mxCell id="Tlv0mU6QZfII-HZCm7lc-360" value="клиент нажимает на кнопку &quot;создать запрос на изменения&quot;" style="rounded=0;whiteSpace=wrap;html=1;" vertex="1" parent="1">
          <mxGeometry x="552.5" y="10370" width="120" height="60" as="geometry" />
        </mxCell>
        <mxCell id="Tlv0mU6QZfII-HZCm7lc-365" style="edgeStyle=orthogonalEdgeStyle;rounded=0;orthogonalLoop=1;jettySize=auto;html=1;exitX=0;exitY=0.5;exitDx=0;exitDy=0;entryX=1;entryY=0.5;entryDx=0;entryDy=0;" edge="1" parent="1" source="Tlv0mU6QZfII-HZCm7lc-362" target="Tlv0mU6QZfII-HZCm7lc-364">
          <mxGeometry relative="1" as="geometry" />
        </mxCell>
        <mxCell id="Tlv0mU6QZfII-HZCm7lc-362" value="пишет желаемые изменения и отправляет" style="rounded=0;whiteSpace=wrap;html=1;" vertex="1" parent="1">
          <mxGeometry x="566.26" y="10480" width="120" height="60" as="geometry" />
        </mxCell>
        <mxCell id="Tlv0mU6QZfII-HZCm7lc-368" style="edgeStyle=orthogonalEdgeStyle;rounded=0;orthogonalLoop=1;jettySize=auto;html=1;exitX=0.5;exitY=1;exitDx=0;exitDy=0;entryX=0.5;entryY=0;entryDx=0;entryDy=0;" edge="1" parent="1" source="Tlv0mU6QZfII-HZCm7lc-364" target="Tlv0mU6QZfII-HZCm7lc-366">
          <mxGeometry relative="1" as="geometry">
            <mxPoint x="190.00000000000023" y="10550" as="targetPoint" />
          </mxGeometry>
        </mxCell>
        <mxCell id="Tlv0mU6QZfII-HZCm7lc-364" value="ожидание ответа от менеджера" style="rounded=0;whiteSpace=wrap;html=1;" vertex="1" parent="1">
          <mxGeometry x="94.75" y="10461" width="170" height="60" as="geometry" />
        </mxCell>
        <mxCell id="Tlv0mU6QZfII-HZCm7lc-366" value="" style="ellipse;whiteSpace=wrap;html=1;aspect=fixed;" vertex="1" parent="1">
          <mxGeometry x="150" y="10560" width="80" height="80" as="geometry" />
        </mxCell>
        <mxCell id="Tlv0mU6QZfII-HZCm7lc-369" value="" style="endArrow=none;html=1;rounded=0;" edge="1" parent="1">
          <mxGeometry width="50" height="50" relative="1" as="geometry">
            <mxPoint x="19" y="10650" as="sourcePoint" />
            <mxPoint x="799" y="10650" as="targetPoint" />
          </mxGeometry>
        </mxCell>
        <mxCell id="Tlv0mU6QZfII-HZCm7lc-370" value="&lt;font style=&quot;font-size: 22px;&quot;&gt;Разработка диаграмм деятельности&lt;/font&gt;" style="text;html=1;align=center;verticalAlign=middle;whiteSpace=wrap;rounded=0;" vertex="1" parent="1">
          <mxGeometry x="1230" y="20" width="365" height="60" as="geometry" />
        </mxCell>
        <mxCell id="Tlv0mU6QZfII-HZCm7lc-371" style="edgeStyle=orthogonalEdgeStyle;rounded=0;orthogonalLoop=1;jettySize=auto;html=1;exitX=0.5;exitY=1;exitDx=0;exitDy=0;" edge="1" parent="1" source="Tlv0mU6QZfII-HZCm7lc-3" target="Tlv0mU6QZfII-HZCm7lc-3">
          <mxGeometry relative="1" as="geometry" />
        </mxCell>
      </root>
    </mxGraphModel>
  </diagram>
</mxfile>
